<svg xmlns="http://www.w3.org/2000/svg" viewBox="0 0 419.53 419.53"><defs><style>.cls-1{fill:none;stroke:#000;stroke-linecap:square;stroke-linejoin:bevel;stroke-width:0.75px;}</style></defs><g id="CA"><g id="CA_135"><path class="cls-1" d="M266.27,213.1H272l8.72-.11.2-.63.39.54h1.88l2.75-1.69.59-.84.2.28,1,.71,1.38-.37,1.66,0,3.81,1.08.79-.53.09-.19.3.82,1.26.66.1-.2.78-.26.1.13.78.33,2.91.3-36.53,0-.11-.4-.21.42h-.32l-117-.54-.7-.1-.71-.6-2.58-.64L143,212l-.24-.45-.24-.41-.23.46-.24.25-1-1.78-.23.11-.24-.55-.71.05-.71.72-.24-.57-.24.4-.72.45-.23-.31-.72,1.29-1-.71-.95-1.57-1.2.44-.48.71-.24-.17-1.69.35-.24-.27-.24.26-1,.69-1-.44-.24.44-.24-.43-.73-.09-.24.48-.25-.54-7.34-.2-1.23-.27-.74-.54-1,.69-3.48-.71-1.5-.24-.25-.14-.5.64-.25-.15-3,.26-2-1.37-1,1-.25.22,1.23-.2,4.08-.1,1.64-.38,2.45.53,1.63.29,4.5.19h2.86l2.86-.33,1.22-.95,1.23.64.82.24,1.63-.7,2.87.2,1.63.18,2.05,0,1.63.56,10.23.44,2.86-.15,1.23-1.58,2,1.26,1.64-.57,4.09-.11,1.23.4,5.31-1.06.82-.25.41.59.41-.47.41.37,1.64-1.4.82,1.17,1.22.41,5.37-.14.25-1.73.26,1.95.38.79.38-.36.88-1.39.5,1.64.25-.3.87-3.13.24,1.69.49.85.24-.39.85-1,1.07,1,1.64-.1.23.85.23-.6.34-2.54.35,1,1.55,2.75,1.41-.48.42-1.27.32.71.22.44.74,1.36.21-.14.83-.85.11.12.31.67.31-.38.51-1.77.41.5.31,0-.1.63.2-.26.91,1.49.7.36,1.28.56,1.84-.32.19-.86.38,1.06,2.26-.14.92,0,1.28-.34.09-.27.45.64,1.18-.76.4-.75.39.25,1.05,1.43.73.13,1,1,45.46.16-.6,0h2.32l7.85,0h0m38,.06-.18-.09,1.19.1h-1m-3.32,0h0m-5.83,0,.84,0h4.41l-5.61-.1.36.07m18,0h0m-15.63-.11-1.44.09,3.21,0-1.77-.11m12.49.08.1-.06.59.09h.78l-3.73,0h0l.3-.2-.25.22.6-.15.59.14.05-.08.2.09.49-.26,0,.26.18-.36.07.33m-24.18,0h0"/></g></g></svg>