<svg xmlns="http://www.w3.org/2000/svg" viewBox="0 0 419.53 419.53"><defs><style>.cls-1{fill:none;stroke:#000;stroke-linecap:square;stroke-linejoin:bevel;stroke-width:0.75px;}</style></defs><g id="AL"><g id="AL_225"><path class="cls-1" d="M275.12,209.89l-170.24,0,173,0-130.92-.13.65,0h1.28l2.25,0,.65,0,3.5-.13.63.14.63-.06.66,0,.67.09,1-.1.66.1.34-.11.69.11.37-.12.72.13,5.46-.11h5l.86.06.94-.14.72.13h1.74l.79-.12,7.33.16H199.6l9.07-.06h7.85l2.18,0,25.6.06,5.93,0h6.08l58.34,0-61.18,0,21.65,0m-8.15,0h0"/></g></g></svg>