<svg xmlns="http://www.w3.org/2000/svg" viewBox="0 0 419.53 419.53"><defs><style>.cls-1{fill:none;stroke:#000;stroke-linecap:square;stroke-linejoin:bevel;stroke-width:0.75px;}</style></defs><g id="VA"><g id="VA_270"><path class="cls-1" d="M305.39,210.06H270.65L249,210h-4.78l-45.46-.08-7.05,0-2.82,0h-5.79l-3.12-.13-.33-.12-.82.06h-1l-15.58-.09-3.07-.06-.79,0-15.19.26-22.16,0-.74,0-1,0-.5,0H115.6l-1,0-9.73,0,1.46-.15H107l.8-.06,4.41.16.44,0,3.64,0,1.43-.08h1.15l.17-.08.21.12.29-.08,0,0,0-.06.17,0,.22.1.81-.08.58.08.85.07,2.43-.11h.09l-.11-.14.13,0,.37,0,.7-.07.19.13.59-.08.78,0,.42-.06.17.08v0l.06.11,0,0h-.18l-.11-.06.89,0,.84.09.47-.1,1.63,0,1.5,0,1.82-.07,1.1.1.26,0,.36,0,.54,0H139l.2.07.39-.1h2.55l.35,0,.53.08.7-.07,1.64.1.15-.07h0l-.71,0,5.33-.1.21,0,1.18.07.18,0v0l18.88-.12.18,0h.36l.4,0h1.79l.7,0,.48.14h0l-.1.13,0,0h-.23l-.3,0h.72l.34,0,.51,0,1.89-.1.17-.09,11.09,0-.53.11h-.25v0l.13-.17h0l1.37.12.29,0-1.16.13-.59-.14-.21,0,.41-.09.34.1.18,0,.33,0h0l.05-.08h0l4.92,0,.34,0,.24.12-.08-.1,5.43-.09,1.91,0,.24-.14.35.15h.6l.4.09,1.48,0,4.28-.07.18-.09.7,0,.25,0h.22l.13-.12.06.09.29.09,0,0,.11-.09,0,.1,2.16.11.22,0,6.55-.06.21,0,.17.1.14,0,0,0,6.16.06-.11.08-.3,0h.83l-.5-.1v-.06l0,.05.1-.05.21.07.14.05.44.08,82,.11h-4.16m1.83,0h0m-3.07,0h0m4,0h0m.1,0h0m6.39,0h0"/></g></g></svg>