<svg xmlns="http://www.w3.org/2000/svg" viewBox="0 0 419.53 419.53"><defs><style>.cls-1{fill:none;stroke:#000;stroke-linecap:square;stroke-linejoin:bevel;stroke-width:0.75px;}</style></defs><g id="NM"><g id="NM_360"><polyline class="cls-1" points="120.91 211.22 121.18 211.04 120.46 211.03 119.69 211.03 119.08 211.14 118.25 211.25 109.85 211.32 104.88 211.22 105.52 210.93 105.55 210.72 105.99 211.14 106.62 211 106.99 210.53 107.1 210.18 107.41 210.94 107.42 210.94 109.67 211.13 111.42 210.98 112.59 210.78 115.51 210.48 133.6 211.51 143.53 211.29 146.45 210.66 147.62 211.23 159.9 211.5 166.91 211.11 168.67 210.89 169.84 210.16 176.27 210.71 177.44 210.83 178.61 210.87 180.95 210.34 186.8 209.67 187.39 209.29 189.15 209.8 192.07 209.87 192.66 210.14 194.41 209.69 195.59 210.24 201.44 209 202.61 209.37 204.95 209.24 207.3 209.78 219.01 210.11 240.7 210.34 247.74 210.09 254.78 210.45 255.95 210.29 264.16 210.06 278.25 209.96 283.53 209.79 284.7 209.1 286.46 209.77 287.64 209.74 289.4 209.07 291.16 209 294.09 209.78 294.68 209.55 297.03 210.36 304.08 210.68 307.6 210.42 312.3 210.95 314.65 211.1 312.97 210.61 312.9 210.15 312.45 210.41 311.67 210.07 311.61 210.19 310.97 210.49 310.91 210.44 309.3 210.05 308.76 210.49 308.46 210.17 308.4 209.76 308.05 210.44 307.46 210 307.06 209.08 306.94 209.84 306.89 210.04 306.66 209.38 306.26 209.14 306.49 209.71 306.15 209.18 306.1 209.35 305.82 208.66 305.65 209.24 305.43 208.82 305.38 208.41 304.95 208.5 304.15 209.56 302.26 209.36 302.02 208.37 301.92 207.55 301.58 208.65 301.01 209.15 300.27 210.05 299.64 209.31 298.86 210.38 298.48 210.46 298.4 210.29 298.23 210.04 298.03 210.49 297.99 210.49 297.63 210.8 297.43 210.65 296.69 211.19 287.04 211.15 282.87 211.17 270.55 211.2 213.09 211.3 199.66 211.43 113.24 211.98 117.29 211.23 117.52 210.83 117.86 210.07 118.03 210.59 118.62 211.67 119.72 211.08 119.78 210.43 120.22 211 121.64 211.39 122.5 211.49 123.54 211.6 117.03 211.62 114.63 211.57 120.91 211.22 120.91 211.22"/></g></g></svg>