<svg xmlns="http://www.w3.org/2000/svg" viewBox="0 0 419.53 419.53"><defs><style>.cls-1{fill:none;stroke:#000;stroke-linecap:square;stroke-linejoin:bevel;stroke-width:0.75px;}</style></defs><g id="SD"><g id="SD_360"><polyline class="cls-1" points="260.97 210.15 314.65 210.41 307.99 211 306.63 211.06 304.35 211.34 303.38 211.21 303.32 211.29 301.7 211.89 298.44 212.15 161.25 211.8 160.82 211.87 160.37 211.81 104.88 212.03 135.96 210.96 137.5 210.53 138.41 210.4 139.4 210.11 139.44 210.17 140.47 210 141.87 210.16 143.64 210.04 144.98 209.74 146.14 209.82 148.06 209.54 153.26 209.55 167.57 209.67 177.32 209.79 183.82 209 188.36 208.41 190.31 209.17 193.56 208.26 196.81 208.01 200.06 208.29 202.65 207.97 206.55 207.69 211.74 207.38 214.34 207.46 257.8 210.31 261.04 210.05 260.97 210.15"/></g></g></svg>