<svg xmlns="http://www.w3.org/2000/svg" viewBox="0 0 419.53 419.53"><defs><style>.cls-1{fill:none;stroke:#000;stroke-linecap:square;stroke-linejoin:bevel;stroke-width:0.75px;}</style></defs><g id="MD"><g id="MD_45"><path class="cls-1" d="M112.68,210.05l164.91-.12h-.52l-.18-.07-.05.06h-.74l14.3-.13-.47-.05-.54,0-1.14,0,.21-.12,0,0-.19-.09-.27,0-.51,0-.39,0h1.08l-.56-.1,12.29.09,7.38-.09,4.92.1h2.46l-17.21.13h-1.18l-.59,0-1.18.15-.88-.09-1.18.09-2.64-.07-6.75,0h-.88l-4.39,0h-1.16l-5-.07-4.07.1-8.11-.14-1.16,0L252,210l-8.9-.09h-1.43l-2.86,0L108,210.05h4.67m10.44,0h0m-17.82,0h0m20.53,0h0m7.45,0h0"/></g></g></svg>