<svg xmlns="http://www.w3.org/2000/svg" viewBox="0 0 419.53 419.53"><defs><style>.cls-1{fill:none;stroke:#000;stroke-linecap:square;stroke-linejoin:bevel;stroke-width:0.75px;}</style></defs><g id="AZ"><g id="AZ_180"><polyline class="cls-1" points="306.46 209.92 305.64 209.5 305.6 209.67 305.21 209.48 305.07 209.67 304.51 209.57 303.09 210.16 301.96 210.07 301.18 210.14 300.4 210.22 298.23 210.18 297.13 210.55 294.37 210.69 293.81 210.21 292.7 210.75 283.79 211.24 279.29 211.26 277.04 211.57 269.67 211.79 261.09 211.23 259.36 211.76 244.35 212.12 241.38 212.1 143.01 211.67 142.76 211.6 142.5 211.8 139.64 211.36 139.57 211.1 139.23 211.75 139.2 211.75 138.6 211.71 137.88 211.48 135.5 211.78 134.74 211.58 134.32 211.72 134.15 211.64 133.33 211.52 130.06 211.09 130.04 210.75 130.62 211.52 136.37 211.52 128.04 211 125.92 210.92 124.99 211 121.77 210.23 119.37 209.89 118.13 209.78 116.47 209.2 114.82 210.57 111.48 211.32 104.88 210.72 105.59 210.72 106.22 209.65 106.43 210.12 107.06 210.75 108.5 210.25 109.11 209.8 110.19 209.36 110.45 208.86 110.72 209.16 110.92 208.91 111.25 209.18 111.38 208.52 111.71 209.5 113.91 208.88 114.22 208.86 114.29 209.16 114.92 209.58 116.41 210.03 117.2 210.21 118.35 209.87 118.76 209.06 118.88 209.84 119.3 208.29 119.35 208.12 119.65 208.87 120.29 209.42 120.34 209.23 120.52 208.75 120.75 209.52 120.92 209.11 121.15 209.49 121.32 208.76 121.38 208.62 121.55 209.49 121.6 209.43 122.45 209.15 122.56 209.41 123.61 209.58 123.66 209.29 124.04 209.71 124.15 209.54 126.47 209.62 144.15 208.27 145.22 208.17 146.82 207.94 148.43 207.41 150.03 207.62 153.25 207.8 154.31 207.45 155.39 208.19 156.99 208.27 165.56 208.51 180.54 208.64 182.14 208.83 186.42 208.61 193.91 208.79 198.19 208.94 200.86 208.73 204.6 208.72 206.74 208.72 212.09 208.62 230.25 207.7 231.32 208.14 232.92 207.91 235.59 208.76 236.66 208 238.26 208.27 242 208.01 242.53 207.64 244.67 208.97 250 209.09 251.6 209.33 252.67 209.19 254.81 209.15 256.41 209.02 259.07 208.84 260.14 209.46 261.21 209.63 262.81 209.65 267.61 210.06 278.8 209.76 281.47 209.34 283.06 209.88 296.38 209.97 303.3 209.73 310.22 209.11 313.94 209.76 314.65 209.47 311.77 209.79 311.32 209.67 311.67 209.85 311.21 209.71 310.07 209.81 308.98 209.43 307.94 209.56 307.83 209.29 307.46 209.97 307.44 209.95 306.46 209.92 306.46 209.92"/></g></g></svg>