<svg xmlns="http://www.w3.org/2000/svg" viewBox="0 0 419.53 419.53"><defs><style>.cls-1{fill:none;stroke:#000;stroke-linecap:square;stroke-linejoin:bevel;stroke-width:0.75px;}</style></defs><g id="NC"><g id="NC_180"><path class="cls-1" d="M106.83,210.62H314.65l-57-.26.63-.33-.14,0,3.45,0,.37-.1,10.16.18,1.4.26,2.09-.22,3.9-.13.28-.11.62-.08.33.31.06,0,.44-.13.06.09,0-.18h.06l.44-.5.06.15.16.32.06.12.16-.22.17-.12.05.1.44.34.16-.19.11.06.55.25.86,0,.69,0,.48,0,2.31.07L271,210.07l-.76,0-2.46-.24-.39,0-1-.23-.52-.18-.49.2-.59,0-.8-.19-1.19.19h-.66l-5.53.25-.4.07-1.93.27-.55.08-.8-.16-1.16-.16-.32-.15L250,209.7l-.51,0-.46-.27,0,0-5.85-.06.23-.16H243l-3.8.11-.45.14-.61-.19-.73-.09-.38.16-.12-.06-.13.16-3.29-.17-.47-.06h-.31l-.48.06-.72-.34-3.7.6-1.06.27-.74.29-.87-.11-.67-.28.06,0-6.89.21-2,.22-3.07.08-.22-.09-.08,0-.38,0-.12-.11,0-.13.31-.13h.84l-6.38-.26-1.85-.05-.93.18-.61-.09-.33-.21.75.19h.63l.69.06.81.18,3.3-.15-1.53-.19-2.51-.06-1.32.15-2.78.2-.84.28-1-.4-4-.11-.09.1-.19-.15-1.09.2-.9-.19,1.26,0,.32-.1,1.08-.26.32-.17.2.26-.3-.27-.13.15-1,.23-.44,0-.31-.06-.31.07-.33-.12-.06.09-1.36,0-2,.31-2.06.12-3.07-.08-1-.23-1,.33-8.36-.28-.49.17-3.74-.23-.56,0-1.23.19-3.39-.08-1.26,0-.8,0-.13-.07-.85.07-3,0,.07.09-2.77.32h-.48l-.48,0h-.67l-.38,0-.1-.12,0,.27-.38.23-2.39.06h-1l-.73,0-.76,0-1.41,0-1.52.07-8.07.06-8.72.06-2.38,0-3.93.07-6,0h-7.09l-1.18,0h-1.35m200.28,0h0m-14.38,0h0m-32.45,0h0m-19.23,0h0m-1.9,0h0m-19.82,0h0m-12.65,0h0m-4.5,0h0m-44.38,0h0m-12.58,0h0m-40.34,0h0m.61,0h0"/></g></g></svg>