<svg xmlns="http://www.w3.org/2000/svg" viewBox="0 0 419.53 419.53"><defs><style>.cls-1{fill:none;stroke:#000;stroke-linecap:square;stroke-linejoin:bevel;stroke-width:0.75px;}</style></defs><g id="CT"><g id="CT_135"><polyline class="cls-1" points="153.05 210.02 152.89 210.02 174.94 210.01 182.54 210 183.72 210 195.51 210.02 230.05 210.01 233.24 210.01 314.65 210.03 272.17 209.78 270.97 209.67 268.87 209.67 263.78 209.8 262.28 209.79 261.38 209.92 255.99 209.8 254.79 209.72 252.4 209.76 247.61 209.85 243.42 209.82 242.52 209.63 238.03 209.53 232.16 209.5 222.93 209.83 201.91 209.67 199.38 209.71 193.59 209.68 191.72 209.83 184.68 209.87 177.04 209.94 122.13 209.82 112.99 209.88 104.88 209.82 121.4 209.85 126.28 209.9 140.36 210 153.05 210.02 153.05 210.02"/></g></g></svg>