<svg xmlns="http://www.w3.org/2000/svg" viewBox="0 0 419.53 419.53"><defs><style>.cls-1{fill:none;stroke:#000;stroke-linecap:square;stroke-linejoin:bevel;stroke-width:0.75px;}</style></defs><g id="NV"><g id="NV_270"><polyline class="cls-1" points="314.65 210.44 313.64 210.19 313.08 208.94 312.41 209.69 310.07 210.5 309.4 210.78 309.17 210.51 307.94 209.37 307.83 209.82 307.72 209.99 307.5 208.76 307.38 207.94 306.83 209.76 305.82 211.24 305.71 211.22 304.26 211.29 301.13 210.32 301.01 209.44 300.34 210.3 299 210.24 298 209.74 297.55 208.51 297.1 206.95 296.77 207.81 296.21 209.76 295.65 209.59 294.31 210.41 287.04 209.2 286.03 209.7 285.25 209.38 284.02 208.59 282.45 208.78 281.33 209.9 280.1 209.66 279.1 210.45 277.87 211.18 277.75 211.03 277.53 211.55 277.19 211.71 275.27 212.62 274.4 213 273.14 212.81 272.49 210.13 272.44 209.71 271.84 211.29 271.75 211.16 271.7 211.02 271.13 211.89 271.08 211.87 269.94 213.02 269.91 212.97 269.89 212.82 269.12 213.42 268.11 213.79 265.99 213.81 251.79 213.18 251.66 212.58 251.35 213.77 251 213.49 250.28 213.67 250.09 213.31 249.91 213.13 249.37 213.81 236.85 213.05 235.04 212.65 230.53 212.27 224.94 211.25 222.78 212.13 219.44 212.65 215.24 212.68 198.66 212.26 197.54 211.33 196.05 212.85 192.71 212.99 181.23 211.49 174.49 208.58 174.07 209.71 173.65 208.71 172.81 210.3 171.14 211.44 167.39 210.85 164.48 211.67 160.35 208.35 158.29 210.35 153.36 210.7 150.91 210.28 149.44 209.28 145.2 205.72 144.67 206.1 143.09 209.63 142.03 209.38 140.45 208.55 135.21 208.34 133.64 208.9 129.47 207.57 128.43 208.38 125.84 208.92 124.29 209.26 122.74 208.31 121.71 206.06 120.17 208.16 116.06 210.64 114.02 208.84 111.98 209.98 109.44 210.71 107.92 208.79 106.9 207.23 105.89 209.62 104.88 209.62 107.52 209.06 108.04 207.37 108.39 208.58 108.91 209.51 109.08 208.71 109.26 208.38 109.43 209.06 110.3 210.68 110.47 210.37 110.82 209.59 111.34 210.1 111.87 210.52 112.21 209.93 112.39 209.36 112.74 210.15 112.91 209.98 115.17 210.84 115.69 209.16 115.87 209.92 116.91 211.47 119 210.69 120.56 210.16 121.95 211.1 122.82 209.75 123.17 210.11 127.16 210.62 128.21 211.09 133.07 209.95 133.76 209.94 133.94 210.22 135.85 210.42 140.75 209.84 142.27 211.01 143.28 210.71 144.79 209.3 147.82 209.8 151.35 210.39 152.86 209.64 158.92 209.83 162.45 210.13 163.97 210.03 171.04 210.89 172.56 210.95 176.1 209.78 177.11 211.29 181.16 210.75 183.18 209.88 187.23 209.47 188.24 207.95 189.26 208.01 190.78 209.83 192.8 210.31 196.35 210.69 197.87 210.71 199.89 210.55 201.92 211.08 207.5 210.72 209.52 210.24 211.04 210.45 213.07 209.55 220.18 210.2 225.76 210.48 240.96 210.4 253.63 209.06 256.68 208.69 259.21 209.22 260.74 209.27 261.75 209.51 263.78 209.73 280.04 209.79 287.67 208.79 289.7 209.06 290.72 209.07 292.24 210.16 295.3 210.16 298.35 210.28 310.57 209.57 311.59 209.69 313.12 210.34 314.65 210.44 314.65 210.44"/></g></g></svg>