<svg xmlns="http://www.w3.org/2000/svg" viewBox="0 0 419.53 419.53"><defs><style>.cls-1{fill:none;stroke:#000;stroke-linecap:square;stroke-linejoin:bevel;stroke-width:0.75px;}</style></defs><g id="OK"><g id="OK_360"><polyline class="cls-1" points="285.13 208.48 301.9 208.43 314.65 208.64 309.51 209.43 305.41 210.15 304.82 210.2 304.76 210.32 303.55 210.55 302.7 210.54 302.66 210.68 302.67 210.86 303.1 210.67 302.43 210.7 289.64 210.73 282.91 210.79 274.16 210.69 264.51 210.65 244.32 210.64 228.63 210.46 224.89 210.59 222.65 210.6 220.41 210.86 217.42 210.95 206.53 211.05 198.34 210.95 188.99 210.81 187.82 210.13 183.15 210.87 180.81 210.01 178.47 210.88 170.29 210.8 167.95 210.3 166.78 209.77 163.28 210.63 162.11 209.93 152.76 210.69 134.07 210.91 104.88 211.1 282.41 209.08 283.6 208.82 285.13 208.48 285.13 208.48"/></g></g></svg>