<svg xmlns="http://www.w3.org/2000/svg" viewBox="0 0 419.53 419.53"><defs><style>.cls-1{fill:none;stroke:#000;stroke-linecap:square;stroke-linejoin:bevel;stroke-width:0.75px;}</style></defs><g id="CO"><g id="CO_360"><polyline class="cls-1" points="314.65 209.34 312.85 210.5 312.72 210.32 312.07 210.4 312 210.46 310.53 210.6 309.11 210.87 307.83 210.65 306.95 210.46 306.89 210.55 305.73 209.6 305.39 208.71 305 209.28 304.38 208.29 304.16 209.11 303.4 209.65 303.35 209.63 302.28 209.16 302.23 209.21 301.05 209.92 301 209.73 300.6 209.09 300.2 209.64 297.96 210.88 297.91 210.81 297.23 211.09 294.07 211.78 292.94 212.06 247.73 212.76 241.27 212.71 237.32 212.56 231.39 212.61 223.49 212.47 195.81 212.38 181.58 212.4 104.88 212.58 107.52 211.76 107.81 211.94 108.29 211.38 108.43 211.73 108.93 211.12 112.13 209.92 112.42 210.31 112.71 209.6 114.5 206.77 112.94 209.79 114.62 207.94 115.75 209.94 116.98 209.63 117.97 208.66 118.86 207.99 119.7 209.17 120.76 210.29 119.84 209.08 120.83 210.02 120.98 208.94 121.49 210.24 122.22 210.87 122.3 210.71 122.67 209.91 122.97 210.88 123.73 210.84 123.89 210.23 124.5 210.34 126.32 210.87 126.4 210.99 126.8 210.34 128.36 210.45 129.19 211.61 131.07 211.83 133.69 211.63 143.63 211.65 146.24 211.59 153.04 211.44 158.8 210.65 171.35 210.41 178.67 210.41 181.81 210.67 183.38 210.61 186.52 211.3 189.66 210.06 191.22 210.28 191.75 210.97 193.32 210.2 194.89 209.77 196.46 209.87 200.12 209.76 201.17 210.39 202.21 210.18 203.26 209.45 206.92 210.22 209.54 210.39 210.58 211.83 212.15 211.78 213.72 210.41 216.34 210.17 218.43 210.17 220 210.64 229.41 211.87 233.08 211.83 241.97 211.15 244.06 210.32 245.11 209.99 248.77 209.44 259.75 210.82 262.89 210.45 264.98 211.03 266.55 210.7 268.64 211.03 269.69 211.47 271.26 211.21 275.96 211.1 280.14 211.16 283.8 210.94 285.9 210.25 286.94 209.6 291.65 210.89 292.69 209.86 293.74 210.86 294.78 210.51 295.83 210.54 298.44 209.57 299.49 210.38 300.53 209.74 301.58 209.48 304.71 210.01 305.76 210.43 307.33 211.41 314.12 209.16 314.65 209.34 314.65 209.34"/></g></g></svg>