<svg xmlns="http://www.w3.org/2000/svg" viewBox="0 0 419.53 419.53"><defs><style>.cls-1{fill:none;stroke:#000;stroke-linecap:square;stroke-linejoin:bevel;stroke-width:0.75px;}</style></defs><g id="TN"><g id="TN_360"><polyline class="cls-1" points="188.42 211.1 283.9 210.72 284.69 210.5 285.2 210.66 286.12 210.57 287 210.66 287.86 210.25 288.44 210.68 289.5 210.75 289.81 210.68 289.91 210.29 290.32 210.49 290.63 210.56 290.87 210.62 291.22 209.98 291.27 209.84 291.48 210.3 291.57 210.28 291.8 210.08 292.04 210.54 293.41 210.43 295 210.59 296.2 210.47 313.23 210.01 313.57 210.25 313.74 209.84 314.65 209.44 314.16 209.53 311.38 209.11 309.15 209.57 307.9 209.37 283.85 209.81 283.74 209.85 282.39 209.96 281.04 209.38 278.35 209.9 275.65 209.92 272.96 209.71 268.47 209.09 268.24 208.91 268.02 209.05 267.62 209.19 267.49 209.01 265.18 208.66 264.89 208.41 264.72 208.78 264.66 208.83 267.15 209.22 267.61 209.39 267.65 209.28 268.84 209.29 259.76 209.73 258.94 210.17 257.6 209.82 255.36 209.74 254.12 209.39 253.42 209.44 252.54 209.13 251.72 208.93 251.1 208.78 250.6 209 249.9 209.35 248.96 209.26 247.42 209.58 248.33 209.74 248.51 209.8 248.76 209.59 255.54 209.22 255.48 209.17 255.44 209.1 255.11 209.48 254.5 209.67 250.65 209.41 249.41 209.8 248.04 210.06 247.11 210.09 246.25 209.8 245.71 209.8 245.22 209.69 245.13 209.78 242.27 209.87 243.81 210.23 243.42 210.55 243.78 210.15 243.36 210.52 242.85 210.35 242.81 210.4 242.28 210.56 237.57 210.16 236.97 209.89 236.23 210.06 233.9 209.77 232.86 209.45 232.06 209.5 231.52 209.42 230.45 209.42 228.17 209.48 226.49 209.76 225.59 210.52 224.35 209.84 223.66 209.45 223.22 208.94 223.03 209.22 222.49 209.47 221.93 209.32 221.2 209.5 220.24 209.17 219.14 208.72 219 208.85 218.49 208.54 213.75 209.01 213.71 209.13 213.4 208.62 213.33 208.65 211.44 209.03 210.9 209.11 210.32 208.74 209.99 208.61 209.59 208.47 208.8 208.92 205.31 208.48 204.49 208.51 203.71 208.79 200.9 209.22 200.88 209.34 200.83 208.75 200.44 208.9 199.55 209.39 199.49 209.32 198.26 209.14 197.47 209.41 196.44 209.36 196.05 209.46 195.91 209.38 194.41 209.34 193.78 209.76 193.07 209.73 186.56 210.31 182.57 209.33 170.82 209.78 170.16 209.89 164.73 210.33 163.78 210.43 142.01 210.11 141.72 209.71 141.61 210.19 140.92 210.68 139.74 210.86 134.47 210.39 134.36 210.25 134.25 210.69 133.79 210.78 132.78 210.46 131.34 210.78 131.14 210.89 130.83 210.44 130.13 210.92 127.19 210.53 126.55 210.81 123.47 210.84 122.73 210.86 121.74 210.83 104.88 211.12 190.22 211.08 188.42 211.1"/></g></g></svg>