<svg xmlns="http://www.w3.org/2000/svg" viewBox="0 0 419.53 419.53"><defs><style>.cls-1{fill:none;stroke:#000;stroke-linecap:square;stroke-linejoin:bevel;stroke-width:0.75px;}</style></defs><g id="WY"><g id="WY_360"><polyline class="cls-1" points="133.89 209.9 135.69 209.78 138.27 209.78 141.1 210.08 198.44 210.1 201 209.22 209.99 210.06 213.2 210.24 217.69 210.04 219.62 209.9 223.47 210.97 234.37 210.46 235.01 209.62 236.3 210.67 237.58 208.65 238.86 208.95 240.78 209.87 242.07 209.26 242.71 208.51 244.63 209.34 248.48 209.33 249.76 210.22 251.04 209.5 254.89 210.4 261.3 210.38 267.06 209.94 271.54 210.57 275.39 210.54 285.63 209.28 288.19 208.86 296.01 209.75 297.38 209.84 314.58 208.66 314.65 208.64 313.74 208.54 313.69 208.12 313.54 207.35 313.14 209.84 313.1 209.28 312.85 211.09 312.26 210.94 311.34 209.18 311.15 208.49 310.91 209.79 310.58 209.45 310.39 210.31 310.1 208.03 309.91 208.28 309.26 207.81 309.73 209.73 309.21 208.49 308.79 209.44 308.93 207.37 308.38 209.18 307.42 206.63 307.28 207.75 307.05 209.09 306.78 207.35 306.43 208.85 306.38 208.32 305.85 211.34 304.49 212.13 304.02 211.68 303.59 211.85 301.71 212.23 300.34 208.28 300.02 208.94 298.58 212.03 298.46 211.81 297.33 211.74 297.29 211.69 297.18 212.2 296.85 212.28 296.08 212.8 295.97 212.64 295.04 212.49 294.97 212.55 294.38 212.59 294.17 212.44 293.52 212.27 293.32 212.46 292.59 212.66 293.25 212.36 292.39 212.38 291.65 212.44 292.3 212.56 291.59 212.63 291.08 212.89 290.71 212.64 290.16 212.13 289.8 212.47 288.8 212.71 288.77 212.68 263.01 211.93 258.36 210.63 249.57 210.46 247.5 210.39 204.01 212.47 183.28 211.68 168.75 211.8 130.33 211.41 123.58 211.36 112.15 211.36 104.88 211.29 107.94 210.33 109.95 208.57 110.05 208.86 110.75 209.48 110.91 209.04 110.96 208.38 111.27 209.42 111.73 208.69 112.2 208.5 112.36 208.82 112.73 209.25 112.95 208.52 113.16 208.88 113.65 207.66 114.03 208.24 116.01 210.26 120.48 210.23 121.75 209.8 121.95 210.13 122.53 210.12 122.14 209.99 122.67 209.94 123.39 208.81 123.72 208.96 123.95 208.59 124.11 209.49 124.27 209.44 124.65 210.55 125.25 210.24 126.79 210.69 125.46 210 126.85 210.62 128.94 209.04 129.23 209.26 129.7 208.85 130.69 207.99 130.81 208.3 131.4 208.68 131.16 207.81 131.58 208.16 132.12 207.83 132.36 208.37 132.42 208.29 132.72 209.08 133.76 209.92 133.89 209.9 133.89 209.9"/></g></g></svg>