<svg xmlns="http://www.w3.org/2000/svg" viewBox="0 0 419.53 419.53"><defs><style>.cls-1{fill:none;stroke:#000;stroke-linecap:square;stroke-linejoin:bevel;stroke-width:0.75px;}</style></defs><g id="ID"><g id="ID_360"><polyline class="cls-1" points="314.65 209.91 314.46 208.77 314.25 210.88 314.09 210.39 313.53 210.64 313.45 209.76 312.98 211.03 312.59 212.01 312.27 211.66 311.73 209.54 311.57 210.11 311.27 211.38 311.04 209.65 310.96 209.58 310.88 210.1 310.81 210.48 310.48 210 307.66 209.41 305.96 210.26 305.12 209.73 304.83 209.42 304.55 209.78 302.28 211.5 300.58 211.74 299.45 210.9 298.32 210.41 296.62 210.08 295.48 211.13 294.35 209.62 292.93 210.45 292.65 210.55 291.8 209.62 291.51 210.46 291.23 210.14 289.81 209.51 288.67 210.75 288.39 210.58 287.54 211.46 285.83 210.9 285 210.29 284.19 211.18 284.13 211.11 283.93 210.58 283.8 210.18 283.51 210.81 283.37 210.66 283.16 210.35 282.68 210.78 282.64 210.82 282.47 210.19 282.43 210.19 281.96 209.86 281.77 209.95 281.17 209.9 281.39 209.52 281.15 209.79 281.11 209.74 280.66 210.28 275.72 209.74 275.49 209.83 275.05 209.43 274.54 210.04 274.42 209.96 274.36 209.79 274.12 210.28 273.93 210.32 273.89 210.47 273.56 209.73 273.4 209.77 272.25 209.77 272.09 209.19 271.84 210.19 271.76 210.19 271.39 209.88 271.02 210.17 270.76 209.34 269.6 210.15 269.48 209.45 268.95 209.66 268.92 209.62 268.72 210.46 268.43 209.98 267.94 210.25 268.07 209.72 267.85 209.82 266.46 210.43 266.29 209.9 266 209.81 265.78 210.16 265.71 210.12 265.06 209.47 264.97 209.61 264.28 210.32 264.21 210.15 263.48 209.56 263.84 210.35 263.45 209.62 263.35 210.19 263.13 209.28 262.86 210 262.67 208.96 262.4 210.11 262.15 209.27 261.64 209.38 262.02 209.56 261.61 209.53 261.17 209.92 260.93 209.55 258.07 209.32 257.99 208.89 257.7 209.63 257.47 209.34 254.25 209.34 253.7 209.7 254.03 209.11 253.58 209.48 253.37 209.68 253.12 209.08 252.71 209.53 252.49 209.85 252.16 209.22 252.15 209.29 251.59 209.89 251.52 209.99 251.31 209.15 251.16 209.14 251.06 209 250.77 209.62 250.6 209.38 250.11 209.89 249.94 209.38 249.78 208.9 249.57 209.45 249.35 209.31 248.79 209.87 248.7 209.61 248.43 209.05 248.14 209.7 248.12 209.7 248.05 209.96 247.89 209.4 247.55 209.37 246.87 209.71 247.16 208.9 246.81 209.53 246.64 209.14 246.33 209.69 246.23 209.47 245.34 209.59 245.19 208.78 245.89 209.93 244.73 209.32 242.79 209.87 242.71 210.02 242.66 208.94 242.34 208.93 241.8 208.23 242.26 208.95 241.63 208.53 241.22 208.69 241.11 208.31 241.07 208.21 240.93 208.77 240.59 208.82 240.19 208.9 240.42 208.36 240.06 208.41 238.48 208.94 238.43 209.15 238.24 207.96 237.89 208.6 237.75 208.47 237.51 209.43 237.38 209.54 237.18 209 237.09 208.99 236.5 208.41 236.4 208.56 236.17 208.45 235.93 209.01 235.63 208.27 235.52 208.02 235.22 209.17 235.13 209.08 234.65 208.6 234.53 208.35 234.18 209.24 234.13 209.23 233.89 208.61 233.62 208.3 233.44 208.82 233.28 208.59 233.05 208.3 232.62 209.33 232.25 208.8 231.94 209.33 231.61 208.5 230.45 208.7 230.39 208.28 230.34 208.1 230.09 208.89 229.79 208.32 229.77 209.29 229.76 208.24 229.12 209.13 228.06 208.56 228.01 208.39 227.52 209.06 227.46 208.9 227.29 208.42 227.19 208.15 226.78 208.77 226.73 208.74 226.3 209.22 226.52 208.67 226.1 209 225.89 208.45 225.82 208.22 225.58 209.01 225.29 208.61 222.08 208 221.76 207.94 221.6 208.41 221.08 208.91 221.18 208.05 220.99 208.41 220.97 208.01 220.71 208.77 220.37 208.45 219.71 208.8 220.09 208.24 219.67 208.75 219.55 208.22 219.1 209.26 218.44 209.22 217.86 208.73 217.81 208.8 216.73 209.25 215.84 208.42 215.53 209.11 215.73 208.35 215.16 208.97 214.66 208.56 214.52 208.79 210.46 208.24 212.63 208.22 212.78 207.91 212.98 208.49 213.24 208.3 213.98 208.9 214 208.99 214.36 208.4 214.59 208.87 215.06 208.26 214.61 209.02 213.98 208.82 213.74 208.54 213.33 208.65 212.91 208.88 212.63 208.5 211.01 208.8 208.82 208.21 208.29 207.57 208.17 208.06 205.37 207.59 205.25 207.32 205.1 207.97 204.8 207.91 204.5 208.29 204.16 207.88 203.86 207.26 203.56 207.23 203.62 207.46 203.29 207.49 202.39 208.26 202.28 208.11 202.04 207.19 201.57 207.37 201.16 207.81 201.02 208.14 200.8 207.44 200.52 207.85 200.19 207.46 200.35 207.98 199.91 207.91 199.65 207.67 198.99 208.05 198.82 207.45 198.35 207.8 197.1 208.35 197.04 208.46 196.62 207.99 196.53 208 195.82 208.16 195.79 208.15 194.24 208.26 193.54 208.84 192.69 208.12 192.13 207.72 192.6 208.32 192.04 207.87 188.27 208.14 188.52 208.46 188.62 208.66 187.69 208.09 187.32 207.58 186.89 207.06 186.71 207.5 185.98 208.34 185.87 207.94 185.86 207.76 185.38 208.02 185.26 207.9 185.02 208.33 184.62 208.2 184.2 207.46 183.8 207.68 183.59 208.14 183.19 207.71 182.6 207.34 182.84 207.77 182.56 207.53 182.3 207.69 181.9 207.08 181.78 206.95 181.59 207.79 181.48 207.92 181.23 207.28 181.17 207.26 180.41 207.87 180.35 208.04 179.86 207.47 179.61 207.84 179.19 207.74 179.07 207.75 178.83 207.43 178.64 207.5 178.43 207.06 178.02 207.35 177.72 208 177.29 207.46 176.81 207.2 177 207.79 176.73 207.49 176.22 207.98 176.49 207.15 176.08 207.78 175.47 207.67 175.41 207.5 175.37 207 176.02 207.71 178.05 208.16 178.07 208.13 177.7 207.35 178.08 208.27 177.51 208.12 177.01 207.76 176.88 208.17 176.06 207.97 177.38 208.78 178.55 208.65 177.9 208.26 177.31 208.2 177.78 208.6 177.24 208.38 177.21 208.53 177.25 207.2 176.65 208.07 176.63 208 176.14 208.37 176.11 208.37 176.01 208.46 176.4 207.79 176.56 207.36 176.2 208.54 175.54 208.1 175.6 207.49 175.92 208.13 176.07 207.78 176.16 207.63 176.54 208.46 176.58 208.46 177.17 208.92 177.29 208.81 178.01 208.28 178.79 208.85 179.46 209.08 180.27 207.07 180.29 206.94 179.66 208.29 178.85 208.5 178.1 208.71 178.07 208.68 172.99 208.06 171.28 208.05 168.97 208.31 158.56 208.98 153.93 209.19 149.69 209.02 148.53 208.71 147.76 208.62 146.99 209.06 145.83 207.84 145.44 208.46 145.06 207.96 144.29 208.36 143.13 207.73 141.97 208.76 140.81 208.06 140.43 208.44 140.04 207.84 139.66 208.37 138.88 209.38 138.5 208.57 137.34 209.69 129.62 209 128.46 208.75 126.14 209.25 123.82 208.82 121.89 208.9 120.73 208.63 118.8 208.29 109.91 209.42 107.97 208.76 105.66 208.69 104.88 208.9 105.21 209.04 105.43 208.88 105.93 209.51 106.09 209.31 106.88 207.52 107.8 210.4 107.91 210.34 108.61 209.13 108.78 210.44 109.25 209.52 109.79 210.02 109.91 209.79 110.09 209.4 110.33 210.26 111.36 210.37 113.67 209.75 114.05 209.36 114.31 209.56 114.69 208.58 115.21 210.09 115.53 209.9 116.38 208.87 116.84 209.62 118.37 209.67 119.32 208.41 119.46 208.61 120.28 209.47 121.39 209.46 122.66 209.24 123.23 208.54 122.88 209.31 123.38 208.64 123.66 209.24 124.31 209.86 141.84 209.94 143.1 210.13 148.4 209.95 153.19 210.41 155.71 210.15 167.81 211.05 169.58 211.42 172.32 211.62 174.62 211.73 183.67 211.78 189.67 211.67 189.23 211.45 189.36 211.09 189.85 211.32 190.91 211.77 190.93 211.66 192.37 211.08 192.71 210.48 193.03 210.89 193.57 211.56 193.74 211.18 194.59 211.66 195.43 211.68 194.94 211.19 195.45 211.58 195.59 211.13 196.06 211.79 196.07 211.54 196.53 211.04 196.18 211.74 196.72 211.09 196.91 211.62 197.08 210.98 197.34 211.29 198.73 211.14 199.08 211.59 199.31 210.97 199.39 211.28 201.46 211.28 201.49 211.58 202.15 211.83 207.59 211.26 207.71 211.01 207.91 211.53 208.19 211.38 208.23 211.36 208.9 212 209.62 211.41 209.87 211 210.11 211.62 210.59 211.98 210.83 211.75 212.16 210.5 213.16 210.84 213.3 211.75 213.66 210.19 213.91 210.81 214.1 211.46 214.38 210.48 214.49 210.77 215.53 210.99 216.39 211.84 216.99 210.6 216.47 212 217.04 211.25 217.63 211.96 217.33 211.08 217.71 211.85 219.14 210.78 219.58 210.36 219.68 210.81 220.28 211.68 220.35 211.28 220.95 211.74 221 212.02 221.28 211.06 221.51 211.43 221.59 211.09 222.01 211.88 222.64 212.15 222.38 211.74 222.69 212.13 224.22 211.25 224.48 211.85 224.82 211.25 225.67 211.29 226.42 212.22 226.55 212.07 226.94 211.66 227.11 212.19 227.52 212.44 227.2 212.16 227.69 212.36 228.42 211.38 228.72 211.8 229.29 212.25 229.35 211.97 229.83 211.16 229.46 212.22 230.05 211.58 230.97 211.89 231.1 211.63 231.87 211.2 232.9 212 233.05 211.52 233.5 211.97 233.57 212.01 233.81 211.59 234.04 211.36 234.37 211.79 234.39 211.85 234.6 211.36 234.84 211.39 237.31 212.34 237.72 212.57 237.59 212.13 237.9 212.4 238.63 212.09 238.68 212.19 238.73 212.35 239.12 211.68 239.17 211.73 240.41 211.39 240.54 211.71 241.03 212.05 241.15 211.94 241.65 211.53 241.87 211.74 243.13 212.02 243.95 212.06 245.24 212.57 246.04 212.59 247.11 211.77 247.62 211.42 257.3 211.48 259.37 211.49 269.79 211.42 270.99 211.49 279.81 211.71 281.78 211.6 285.54 210.46 286.32 211.32 287.11 210.37 288.28 211.65 292.1 211.6 294.69 211.3 295.4 210.64 295.75 211 297.16 211.46 298.25 211.31 302.45 211.14 314.65 209.91 314.65 209.91"/></g></g></svg>