<svg xmlns="http://www.w3.org/2000/svg" viewBox="0 0 419.53 419.53"><defs><style>.cls-1{fill:none;stroke:#000;stroke-linecap:square;stroke-linejoin:bevel;stroke-width:0.75px;}</style></defs><g id="NH"><g id="NH_225"><polyline class="cls-1" points="113.96 209.33 111.67 209.27 144.05 209.68 145.25 209.79 146.85 209.79 161.64 209.72 169.23 209.45 172.43 209.65 178.43 209.42 180.43 209.35 182.03 209.57 183.24 209.82 188.04 209.95 189.24 209.78 192.04 209.63 193.24 209.4 194.04 209.33 196.44 209.96 198.84 210.07 222.88 210.03 225.68 210.01 237.3 210.1 254.11 209.98 259.73 210.08 260.98 210.09 264.98 210.1 277.26 210.17 311.31 210.26 314.65 210.26 293.8 209.91 292.41 209.87 271.6 210.12 266.34 210.18 186.95 210.1 163.26 210.05 161.35 209.95 160.19 210.08 158.94 210.02 161.99 209.95 162.4 209.94 160.83 209.97 113.88 209.6 106.95 209.55 104.88 209.54 113.96 209.33 113.96 209.33"/></g></g></svg>