<svg xmlns="http://www.w3.org/2000/svg" viewBox="0 0 419.53 419.53"><defs><style>.cls-1{fill:none;stroke:#000;stroke-linecap:square;stroke-linejoin:bevel;stroke-width:0.75px;}</style></defs><g id="WA"><g id="WA_45"><path class="cls-1" d="M280.9,212.79l-10,.07-.42-1-.41.73-1.26-.19-1.25-2.57-.41.75-.42-1-1.25.78L264.19,209l-1.67,1.52-.42.41-.41-1.22-.42.89L260,208.38l-.42,1-.83,1.53-.83-3.12-.42,1.59h-.41l-.83-2.1-1.67,3.88-.41-2.31-.42.77-1.25.53-1.24-3.32L250,208.75l-.41-1-.42,1.15L248,211.8l-.42-.42-.83-3.91-.41,1.54-1.66-.75-.41-1.7-.42,1.72-.41-.94-.42.85-.41,1-.41-.62-.42-1.11-.41,1.18-1.25-.57-.41,1.39-.41-1-.83,0-1.24,1.28-.41-1-1.25-.28-.82-.36-1.24-1-1.65.7-.83-.9-.41.44-.42.22-.41-1.23-.41.49-1.24.56-1.23-.1-.42.57-.41-.59-1.24,0-.82-1-.41.57-1.24.51-3.7,4.57-.41-.64-.41.31-1.24-.09-1.23-.53-1.23,1.34-5.75-2.95-2.05.49-.82.73-.41-.58-.81-.52-1.64.88-1.23.09-.41-.41-.41,1.34-.41-.18-2-2.23-.41.38-2.86,2.06-1.63-1.42-1.22.1-1.23.44-2,1.26-.4-.84-.41,0-1.22-1.69-3.26,2-.81-1.94-.41.44-.41.14-.4,1.32-.41-.44-.81-1-.41.38-1.22.39L177.37,212l-.41-.42-2-1.92-2.84,1.06-.4.61-.41-.67-1.21-.85-1.22-.36h-1.21l-.22-.53L167,210l-.67-.62-.88-1-.22.24-.55.13-.27-.78-.55,1.13-1.1.53-.55-.8-.27.82-.55.26-.55-1.06-.28.42-1.1,1-.27-.49-.28-.68-.28,1.06-1.1.38-.27-.76-.55.61-4.83.3-.5-1-.5,1-1.81.45-3.25-.81-.28-1-.28.54-.28.83-.28-.44-1.09-1.12-1.35,2.1-.54-.13-.27.28-1.72-.39-1.15-1-.29.31-1.06.63-.27-.29-1.59.27h-3.71l-6.38,0-.89-.16-2.06.19-5.67.55-1,1.08-.07-.06-.47-.49-.54.24-2.39-.85-.26.75-.58-.87-.47-.35-.21.65-.43.2-.11-.54-.48-.48-.36.31-.92,1.43.66-1.8-.84,1.46L106,210.46l-1,.81-.13-.56.66,1.61.26-.22,1-3,.52,1.09,1,1.76.24-.94.25,0,.25,1,.5-1.1.49-1,.5.32.49.82.5-.75.5-.48.25.2,1,1.16.25-.78.49,1.24.25-.76,1.74.38,1.49-1.22,1.25-.09.25,1.26.49-1.15,1.25-.4.25.8.5-1,.25,0,.49,1,.25-.38,1.25-1.13,1.74.88.25-.59.25.08.75-1.3.25.87,1,.22,1,1.72,1.25-.86.75,1.35.5-1.11.25-.33.25.56,2,1.5,2.75.54,8.52-.13,1.75-.72,4.43,1,9.07.36,31.06-.88.64-.9.3.65,1.94.85,1.88-.1,1.25-1,1.88,1.56.63,0,1.41-.85,3.27.43,2.41.4.79.06,3.82-.43.25-.62.68.45,2.6.57,5.34-.19,94,.27-33.75-.39m-31.38.39h0m17.13,0-1.9-.09,2.18-.07-.28.16m-10.83-.13-1.74-.06,2.71,0-1,0m-5,0-1.34.13h1.74l-.4-.13m-1.59,0-2.2.11h4.4l-2.2-.11m4.47.11H253l3.86-.13-3.15.13m13.41,0h0m-9.94-.15-.74.15,14.1-.07L257.17,213m17.6.14-.78-.44,1.74.45h-1m1.89,0-2.1-.16,4.11.05-2,.11m3.52,0-2,0,7,0-5,0m-3,0,.55-.28.34.3h4.55l-5.44,0h0m-2.55-.23-.43.25.52-.47.76.47,2.34-.19-3.19-.06h0m15.42.25-.11-.09h-.11l-.1,0-.11,0h-.1l-.11,0-.1,0-.11,0-.1,0-.11,0-.1.08V213h0v0h0v0h0l.06.05.06,0,.07.07h.06l.07,0h.77"/></g></g></svg>