<svg xmlns="http://www.w3.org/2000/svg" viewBox="0 0 419.53 419.53"><defs><style>.cls-1{fill:none;stroke:#000;stroke-linecap:square;stroke-linejoin:bevel;stroke-width:0.75px;}</style></defs><g id="FL"><g id="FL_180"><path class="cls-1" d="M106.68,209.77h0m201.24,0h0m-172,0h0m168.78,0h0m-147.76,0h0m149,0h0m-153.59,0h0m154.34,0h0m-157.07,0h0m155.72,0h0m-139.54,0h0m136,0h0m-124.63,0h0m121.56,0h0m-120.7,0h0m119,0h0m-74.35,0h0m72.15,0h0m-54,0h0m42.21,0h0m-38.89,0h0m30.54,0h0m-27.21,0h0m20.74,0h0m-16.67,0h0m-50,0h0m66.48,0h0m-80.65,0h-13m93.44,0h0m1.73,0h0m-.2,0h0m14.55,0h0m.77,0h0m29,0h0m.94,0h0m-2.37,0h0m-.9,0h0m-2.3,0h0m-1.58,0h0m-.07,0h0"/></g></g></svg>