<svg xmlns="http://www.w3.org/2000/svg" viewBox="0 0 419.53 419.53"><defs><style>.cls-1{fill:none;stroke:#000;stroke-linecap:square;stroke-linejoin:bevel;stroke-width:0.75px;}</style></defs><g id="ME"><g id="ME_90"><path class="cls-1" d="M267.34,210.07l-6.93,0-3.76,0-.7.07-1.21.06h-66l-2.1.07-2.37,0-47.54.09h-1.91l-22.41,0-1.22,0h-4l14.52,0,2.7,0-2.45,0,7.27,0L283.41,210l.53.06,2.58.13,5.8-.36.86-.11,1.28.36,1.39-.42.43-.22.11.09.43,0,1.39.24,3.21.1,1.07,0,4.17-.36,2.45,0,.85,0h1l1.28,0,1-.11,1.06.23.43-.21-.78,0-1.78,0-.6-.22-1.51.4-7.23-.18,0,.16.31-.08,1.1.14-8.95-.2,0-.05h.35l1.71.24,2.84.12,1.23-.28-2.33.25-.87-.06-1.21,0-.5-.12-1.09.16-8.27-.07-.29.14.63-.08,5.66.17-24.75.17-.6.08h-.37m-77.75.26h.22l.06,0h-.28m30.69,0-.25,0h2l-1.74,0m-3.5,0h1.92l0,0h0l0,0,0,0,0,0h-1.39l-.15,0-.14,0h-.11m-27.55,0h.17l0,0h.46v0h.13l-.09,0h-.74l-.09,0H189l-.09,0h.35v0h0m-13.1,0-2.73,0,5.93,0h-3.2m6,0,5.82,0-5.82,0m.74,0-4.26,0h4.26m-11.92,0h0m-9,0h0m8.57,0-1.17,0h3.12l-1.95,0m-10.31,0H154.9l12.19,0-6.91,0m-32.09,0h.24l0,0h2.82l0,0h-3.06m-10.3,0h.58l.1,0,.1,0,.1,0h.19l.1,0h.36l0,0h-1.49m-12.67,0h0m7.71,0H113l0,0h-1.18l-.15,0-.15,0-.15,0-.15,0h-1.09l-.1,0-.11,0h0l.1,0h.81l0,0H111l0,0h1.81m-3.18,0,1.33,0h-1.61l.28,0"/></g></g></svg>