<svg xmlns="http://www.w3.org/2000/svg" viewBox="0 0 419.53 419.53"><defs><style>.cls-1{fill:none;stroke:#000;stroke-linecap:square;stroke-linejoin:bevel;stroke-width:0.75px;}</style></defs><g id="HI"><g id="HI_45"><path class="cls-1" d="M314.52,210h0m-35.4,0h0m-19.25,0h0m-32.37,0h0M198,210h0v0h0v0h0m-24.77,0h0m-17.31,0h0m-7.1,0h0m-15.22,0-.55,0,.44-.23.06.23h.05m-8.84-.43-.4.45h5.34l-4.94-.45m.51.45h0m-3,0-.34-.19.8.2,0,0,0-.17.11.2h.51l-1.1-.11,0,.08v0h0m-4.78,0h0m-11.79,0h-.88l5.09-.08.5.05H112v-.06l.06.09h-6.3"/></g></g></svg>