<svg xmlns="http://www.w3.org/2000/svg" viewBox="0 0 419.53 419.53"><defs><style>.cls-1{fill:none;stroke:#000;stroke-linecap:square;stroke-linejoin:bevel;stroke-width:0.75px;}</style></defs><g id="PA"><g id="PA_180"><polyline class="cls-1" points="130.3 210.11 143.02 209.77 146.92 209.76 149.06 209.77 144.31 209.75 143.3 209.78 142.73 209.62 142.05 209.8 141.48 209.74 140.33 209.59 139.87 209.51 138.82 209.64 138.47 209.72 137.78 209.53 135.06 209.76 134.23 209.59 133.63 209.72 132.06 209.56 129.14 209.61 128.4 209.7 120.97 209.68 119.17 209.79 118.65 210.03 114.32 209.78 113.79 209.87 113.39 209.84 112.86 209.74 110.58 209.77 110.04 209.82 109.5 210.01 108.96 209.79 108.42 209.79 108.01 209.89 107.6 209.92 107.05 209.74 105.68 209.91 104.88 209.83 112.28 209.78 111.78 209.83 111.28 209.92 111.18 209.91 115.75 209.86 124.81 209.97 130.68 209.96 132.53 210.07 133.45 210.06 148.93 210.13 150.23 210.13 290.61 209.85 290.92 209.74 291.45 210.14 292.93 210.11 297.38 209.79 297.48 209.53 297.58 209.87 298.09 209.98 298.29 209.63 298.5 210.03 298.9 209.79 299 209.6 299.21 209.78 299.61 209.69 301.12 209.45 301.92 209.56 302.9 209.39 303.59 209.49 303.99 209.67 306.02 209.59 307.44 209.59 307.99 209.58 308.85 209.9 314.65 209.84 293.15 209.84 290.6 209.94 282.96 209.9 274.3 210.01 271.24 209.92 263.09 209.91 130.3 210.11 130.3 210.11"/></g></g></svg>