<svg xmlns="http://www.w3.org/2000/svg" viewBox="0 0 419.53 419.53"><defs><style>.cls-1{fill:none;stroke:#000;stroke-linecap:square;stroke-linejoin:bevel;stroke-width:0.75px;}</style></defs><g id="MT"><g id="MT_270"><polyline class="cls-1" points="110.03 210.69 111.31 209.54 111.95 210.35 112.28 209.77 112.6 210.15 113.9 211.1 114.23 210.69 114.57 211.05 114.91 211.24 115.24 210.5 115.58 210.73 115.92 210.71 116.93 211.5 117.61 211.07 118.28 210.61 118.62 210.82 119.29 210.07 120.31 209.94 120.98 209.74 121.99 210.53 123.01 211.15 124.02 211.84 126.72 211.84 128.41 210.05 130.44 209.96 130.78 210.73 131.11 210.19 134.83 209.91 135.17 209.69 136.86 211.16 139.57 210.18 140.58 209.27 140.92 209.65 141.26 208.93 142.61 210.62 143.34 209.9 143.55 209.01 143.89 209.87 145.14 210.65 146.07 210.73 146.39 211.04 146.7 210.58 147.69 209.49 148.03 209.87 148.37 209.03 148.71 210.58 149.04 210.1 149.72 210.58 150.06 210.85 150.4 210.44 153.11 210.66 156.16 211.05 157.52 210.85 161.59 211.01 165.32 210.96 171.43 211.08 172.79 211.06 181.96 211.5 185.36 211.08 188.42 211.37 191.15 211.37 203.4 211.71 205.1 211.86 212.11 211.79 258.04 211.83 259.41 211.86 263.86 211.81 268.65 211.85 273.45 211.68 286.47 211.96 290.59 211.98 307.75 212.06 314.42 212.14 314.65 212.13 309.94 211.72 308.04 211.69 307.49 211.58 307.47 211.5 307.43 211.53 306.84 211.48 306.23 211.56 306.22 211.56 304.89 211.53 299.27 211.44 287.9 211.07 286.82 211.14 275.63 211.26 263.91 211.16 261.57 211.29 258.14 211.21 256.88 211.17 255.26 211.44 254 211.38 250.04 210.93 248.96 210.63 245.36 211.04 243.74 210.87 241.76 210.74 238.7 209.96 238.52 209.44 238.16 209.9 237.62 209.42 236.9 208.8 235.1 208.75 232.76 210.7 231.86 210.66 231.32 210.64 229.53 210.94 228.27 211.09 212.46 210.6 210.12 209.11 208.68 207.93 207.43 208.06 207.07 208.9 206.89 208.72 206.17 207.99 205.99 207.97 205.63 207.23 205.45 207.64 204.74 207.84 204.02 208.21 203.66 208.64 203.3 208.29 200.25 209.14 199.71 207.73 199.53 208.12 198.81 208.84 198.46 208.02 198.28 208.32 197.38 209.33 196.3 208.67 196.12 208.03 195.94 208.34 195.59 209.1 195.41 208.58 195.05 208.25 193.97 209.68 193.25 208.86 192.54 208.87 192 209.2 191.82 208.96 190.92 208.6 188.41 209.68 187.34 209.64 186.98 210.16 186.8 209.83 186.09 209.65 185.19 210.01 185.01 210.26 184.65 209.91 183.58 208.58 183.22 208.98 182.68 208.59 182.5 207.71 182.15 208.03 180.89 208.68 176.63 208.8 176.55 208.89 175.92 208.85 173.03 209.35 172.98 209.1 171.67 208.18 170.83 208.72 170.54 208.34 170.19 209.21 169.98 209.77 169.61 209.29 169.02 208.91 168.9 209.14 168.59 209.57 169.38 208.29 168.42 208.77 166.27 209.1 165.91 209.29 165.72 209.06 165.11 208.17 164.78 208.56 164.01 208.83 163.89 208.78 163.57 209.09 162.85 209.21 161.84 208.06 161.77 208.1 160.94 208.96 154.79 209.51 154.22 209.65 149.02 208.85 148.63 208.75 148.43 208.17 148.03 208.72 147.06 208.93 146.4 208.54 146.33 208.65 146.11 208.94 145.72 208.69 145.25 209 144.57 209.24 144.46 209.15 143.88 208.51 143.45 207.85 143.8 208.61 143.31 208.36 142.96 208.73 142.81 208.45 142.46 208.72 142.12 208.03 141.5 208.75 141.31 208.27 140.95 207.9 141.2 208.79 140.79 208.45 140.27 209.05 140.56 207.81 140.22 208.61 139.84 207.9 140.1 208.81 139.63 208.31 139.39 208.83 138.75 209.29 134.32 208.78 134.56 209.28 135.32 209.5 135.34 209.43 135.43 208.79 134.87 208.84 134.77 208.68 134.85 208.98 134.32 208.94 133.83 208.54 133.87 208.33 133.74 208.9 133.32 208.25 132.69 208.75 132.55 208.42 132.53 208.02 132.56 208.99 131.99 208.16 131.89 208.06 131.95 208.7 131.77 209.45 132.21 208.14 131.44 209.13 131.93 209.22 128.2 209.13 127.57 208.86 126.29 209.36 126.16 209.63 125.76 209.05 124.89 209.5 124.08 209.42 123.56 208.98 123.84 209.6 123.51 209.02 123.32 209.31 122.95 209.07 122.56 209.35 122.28 208.98 122.26 208.91 121.83 209.47 121.53 209.51 121.63 209.28 121.36 209.22 121.25 208.98 120.96 209.69 120.86 209.52 119.6 209.21 118.88 209.21 118.38 209.16 119.8 209.87 119.92 209.55 119.67 209.41 119.33 209.93 119.28 209.68 119.45 208.94 119.84 209.29 122.75 208.81 122.75 208.69 122.42 209.76 122.2 209.44 121.96 208.95 122.64 209.7 122.69 209.21 122.67 209.1 122.24 210.16 122.04 209.54 122.68 209.83 123.16 209.21 123.52 208.84 123.46 209.94 123.68 209.84 123.96 209.14 124.31 209.02 124.14 209.49 124.52 209.06 124.74 209.86 125.05 208.88 125.06 208.88 125.07 208.76 125.33 209.66 125.6 209.11 125.87 210.13 125.56 208.72 126.37 209.68 126.77 209.03 126.94 209.55 127.38 209.12 127.64 208.96 127.21 210.09 126.81 209.88 125.83 209.97 125.81 209.82 122.71 209.95 122.39 209.66 122.47 210.34 122.16 210.04 121.96 210.48 121.67 209.87 121.62 209.9 121.28 210.27 121.49 209.52 121 209.86 120.61 209.46 120.49 209.89 120.47 210.31 120.2 209.56 119.94 209.99 119.9 209.84 119.53 210.27 119.38 210.01 119.29 210.51 119.02 209.69 118.85 209.84 118.47 210.39 118.33 209.7 118.32 209.56 118.49 210.55 117.8 210.41 116.09 209.62 115.43 209.96 115.41 209.86 115.37 209.52 115.21 210.22 114.86 209.75 114.47 210.55 114.26 210.41 114 209.96 113.81 210.47 113.69 210.34 112.5 210.05 112.36 209.61 112.11 210.54 111.84 210.23 111.71 209.9 111.35 210.49 110.97 210.15 110.68 210.79 110.11 210.35 110.06 210.07 109.72 210.69 109.61 210.37 109.2 211.03 109.5 210.34 109 210.8 108.39 210.93 107.29 210.53 108.75 210.77 108.79 210.52 108.97 210.1 108.39 210.15 108.38 209.93 108.01 210.7 107.83 210.1 107.78 210.02 108.47 210.72 108.48 210.68 108.68 210.14 108.79 209.82 108.61 210.97 108.1 210.56 108.09 210.36 107.57 211.1 106.02 210.38 105.98 210.12 105.55 211.28 105.5 211.19 105.17 211.27 105.33 210.86 105.05 210.85 104.88 210.66 105.15 212.01 105.61 211.24 105.84 209.81 106.3 210.39 106.7 210.2 106.93 211.56 107.34 210.1 107.05 211.64 107.51 210.92 108.03 212.3 108.14 212 108.66 211.41 108.83 210.03 109.23 210.37 109.29 210.76 109.4 210.02 109.75 210.4 110.03 210.69 110.03 210.69"/></g></g></svg>