<svg xmlns="http://www.w3.org/2000/svg" viewBox="0 0 419.53 419.53"><defs><style>.cls-1{fill:none;stroke:#000;stroke-linecap:square;stroke-linejoin:bevel;stroke-width:0.75px;}</style></defs><g id="NY"><g id="NY_270"><path class="cls-1" d="M211.67,210l49.66-.22.26.06.66-.08.07-.11.16.13.36.07,2.86-.14.18.15.08-.1.28.14h.44l.8-.08.26.11.77-.15,0,.07.26.05,0,0h.43l.26,0,1,0,.7,0,.87,0-8.23.12h.24l-.44,0,.23,0-8.88-.16-1.06,0-5.25-.08-1.57.13-4.72-.09h-1.57l-1.75.08h-2.55l-.21-.08h-.67l-4.79.06h-.34l-7.16-.17H223l-.49,0h-1.29l-.5.12-2.72-.14-5.31.11-27.87-.07h-18.2l-.94-.12-1.89.13-1.57-.11-6.59-.05-1.57.09h-6.92l-2.2.08-10.7-.09-.63-.11-4.1.14h-3.77l-20.51.11-.32.14h0l106.77.09h0M264,210h0m-3.62,0h2.11l-4.36,0h2.25m52.73,0h0m-30.45,0h0m8.79,0h0m10.7,0h0m5.09,0h0m2.2,0h0"/></g></g></svg>