<svg xmlns="http://www.w3.org/2000/svg" viewBox="0 0 419.53 419.53"><defs><style>.cls-1{fill:none;stroke:#000;stroke-linecap:square;stroke-linejoin:bevel;stroke-width:0.75px;}</style></defs><g id="NE"><g id="NE_360"><polyline class="cls-1" points="185.95 207.82 223.27 208.25 229.12 208.47 232.78 208.43 238.63 208.83 251.79 208.87 269.34 208.5 275.92 208.37 302.96 208.11 314.65 209.08 314.02 209.22 311.75 209.28 305.21 209.81 304.01 210.06 302.65 210.4 301.47 210.63 301.44 210.59 301.26 210.56 300.95 210.91 300.6 210.85 297.57 211.14 291.13 211.39 291.8 211.44 185.51 211.6 183.44 211.63 152.09 211.66 139.55 211.67 126.75 211.69 114.19 211.71 104.88 211.37 108.11 210.59 110.08 210.17 111 209.91 112.36 209.7 115.39 209.44 123.09 209.38 146.18 209.37 173.29 209.32 183 208.47 184.48 208.14 185.95 207.82 185.95 207.82"/></g></g></svg>