<svg xmlns="http://www.w3.org/2000/svg" viewBox="0 0 419.53 419.53"><defs><style>.cls-1{fill:none;stroke:#000;stroke-linecap:square;stroke-linejoin:bevel;stroke-width:0.75px;}</style></defs><g id="GA"><g id="GA_270"><path class="cls-1" d="M312.2,210.07h2.45L128.06,210l-1.21,0-2.3,0-6.82,0-.32,0h-4.14l-.56,0h-7.83l9.17,0,.44-.12,3.14.17h4.47l17.9,0,2.24-.06h1.49l1.19,0,1.31-.07.75-.1,1,.08,2.68.08,2.26,0,6-.06,26.88-.23.81-.14.54.15.8-.13.54.16,1.34.12,1.08,0,1.34.08h.54l1.34-.16,1.61,0,1.07.11,3.76,0,.81-.09,1.12.07-.84.06-.4,0h-.46l-.58,0h-2.25l-1.06,0-.68,0-1.31,0,25.65.09h4.4l16.3,0,71,0h0m-8.2,0h0m-2.45,0h0m-4.12,0h0"/></g></g></svg>