<svg xmlns="http://www.w3.org/2000/svg" viewBox="0 0 419.53 419.53"><defs><style>.cls-1{fill:none;stroke:#000;stroke-linecap:square;stroke-linejoin:bevel;stroke-width:0.75px;}</style></defs><g id="OR"><g id="OR_360"><path class="cls-1" d="M195.18,213.56l25-.1.54-.2-.42.29.82,0-.48,0h13.11l69.93-.76.35-.32.35,1.08.21,0,4.36,0h5.66l-38.45-.68.17-.09v-.4l.48,1.13.41-.25,1.33,0-1-.6-.07-1.16-.81,1.94-.53-.57-.27-1.09-.53,1.07-1.06.5-.08-.29-1-1.7-.27.21-.57.89-1.25.77-2,.13,0-.29.57-.74,0,1,.36-1,.41.06-2.48.7,2.46.11h.28l-2.39-.07,1.1-.82-.81-.46-.23.18-1.27.94-1.86-.47-.95-2-.73-.55.44,1.49-.66-1-.15-.13-.43-2.37-.58,1.42-.5-.54-.07.38-1.08,2.11-.14-1.41-.71,1.46-.07-.61-.21,1.27-.63-1.82-.07.45-.21-.92-.14,1.45-.49-.24-.35,1.17-.36-2.35-.07-.68-.36,3.42-.34-1,0,0-.48-.76-.34.36-1.28.63-.21-.63-1.26-.61-1.27,1.07-.18-.21-.37-.3-.24.66-.17.73L250,210.8l-.1-.16-.4,1.13-.54.56.38-.85-.83.42-.89-.88-.35.88-1,.66-.18-.16-.29-1-.69.82-.65-.22.3-.34-.45.11-.76-1.33-.6.27L238.94,212l-.19-.69-.92-.88-.21.27-.2,1.22-.4-1.55-.3.35-1.06-.16-.74-1.24-.24,1.18-.25.47-.25,1.12-.61-1.21-.13-.43L233,212l-.1-.31-.43.16-.11-.34-.6-1.72.27,1.92-.59-.57-.41.82.25-1-.75.46-.4.48-.64-1.92-1.28.11-1.17-.89.62,2-.67-1.82-.46,2.27-.61-2.08-.2-.18-.21.55-.2.46-.61-.66-.73,0,.24.64-.36-.52-1.18,2.12-.68-.56-.34-1-.34.63-1,.93-.82-.59-.92-.94-.08.14-.68,1.25-.4-.63-.59-.31-.31.3-1.09.59-.33-.27-1,.07-.43.17-.41-.4-.76-.29.38.5-.57-.36-2.44.46-1.11-1.1-1.28.75-.16-.67-.7-.22-.11.44-.11.46-.77-.78-.07.31-.86-.47-.13.29-.13.69-.65-.9-.18.16-.83-.14.54.89-.64-.59-.58.85-.4-.61-.27-.4-.22.85-.49-.6-4.63.47-.59.32-.16-.71-.3.44L194,211l.54.62-.61-.6-1.53-.42-.1.45-.95.53-.2-.11-28.92-.81-4.29-1.81-1.44.81-2.86.06-10.75-.64-3.22.3-34.78-.7,1.84-.77,1-.18.11.47,1.21,1,1.22-.07.11-.37,1.9-.4.68-2.47.46,2,2.06,1.7.11-.12.46-2,.47,1.72.7,0,.11-.36,1.41-.85.23.31,1.78-.46.59.18.36.67.6-.71.36.19.37-.75.12-.14.12.81.36,1.23.49-1.32.12-.25.36.94h.13l.36.19.35-.55,1.55-1.16,1,2,1.75-.24.18-.94.7.4,3.39,1.24.36-1,.54.8,1.08.39,5.34.3,1.12.86.19-.66.75.66,1.32-1,.19.62.19.34.38-.7,1.14-2.72.38.31,2.11,3.53.59-1.43,1.16-1.34.19.89.59-1.21,1,1.4,1.37,2.25.79-1.41.2.35,1,1.58-.39-2,.59,1.13,4,2L185,213l.27-.83.31,1.37h9.57m116.05,0h-.35l0,0h-1l-.06,0h1.44"/></g></g></svg>