<svg xmlns="http://www.w3.org/2000/svg" viewBox="0 0 419.53 419.53"><defs><style>.cls-1{fill:none;stroke:#000;stroke-linecap:square;stroke-linejoin:bevel;stroke-width:0.75px;}</style></defs><g id="MA"><g id="MA_180"><path class="cls-1" d="M269.2,210.26h-4.06l-34.79-.12,35.72.1-17-.37h1.8l2.7.12,2.48.17,10.16,0-2.43-.14,1.27-.08.49-.15,9.41-.07.85-.36-2.78.3-1.82-.14-18.22.36h-2.72l-2.71-.18-39,.11-2.71-.29-1.82,0-6.34-.19-16.46.42-.86.2-.82,0-1.8-.37-.83.27-1.08-.39-1,0-.78.16-.19.2-.18-.19-3.74.23-.45,0H168l-2,.1-.72.14-1.2.08-4.16-.25-34.82.27-20.2.11,183.62,0-19.3,0m9.29,0h0m13.14,0h0m-51.28,0h0m35.73,0h0m11.7,0h0m-2.41,0,21.41,0H279.27l6.1,0m28.2,0h0"/></g></g></svg>