<svg xmlns="http://www.w3.org/2000/svg" viewBox="0 0 419.53 419.53"><defs><style>.cls-1{fill:none;stroke:#000;stroke-linecap:square;stroke-linejoin:bevel;stroke-width:0.75px;}</style></defs><g id="VT"><g id="VT_90"><polyline class="cls-1" points="314.65 210.42 252.72 210.02 234.28 209.99 230.4 209.9 220.69 209.42 214.87 209.99 209.05 210.08 189.66 209.9 181.91 209.86 151.88 209.48 145.1 209.57 123.87 209.58 121.02 209.58 113.87 209.78 113.43 209.81 117.25 209.56 118.39 209.51 120.61 209.54 120.72 209.64 119.88 209.81 110.92 209.65 106.81 209.91 104.88 209.87 119.95 209.82 126.11 209.93 129.76 209.83 139.07 209.96 140.5 209.96 145.87 210.06 146.05 209.87 144.97 210.18 141.7 210.11 140.35 210.17 144.01 210.21 132.38 210.3 211.96 209.68 216.72 209.94 224.57 209.1 226.71 209.82 227.62 210.06 233.52 209.83 287.15 210.43 314.65 210.42 283.56 210.43 314.65 210.42"/></g></g></svg>