<svg xmlns="http://www.w3.org/2000/svg" viewBox="0 0 419.53 419.53"><defs><style>.cls-1{fill:none;stroke:#000;stroke-linecap:square;stroke-linejoin:bevel;stroke-width:0.75px;}</style></defs><g id="KY"><g id="KY_90"><path class="cls-1" d="M305.56,210.14,115.71,210v-.06l-.2.13h-.36l-.38,0V210l-.17,0-.07.05-.41,0h-.82l-.15-.07-.07.09-8.19,0,2.68-.17.76.07.68,0,.4-.09h.41l1.06.09.43,0,1.62-.06.76.12.64-.14.38,0,1.87-.14,1.09,0,3.61-.09.58.13,1.52-.11v0l-.3.11,0-.06,0-.18,0,.19.14-.2,0,0,.19-.12,1.59.1.21.1.41-.19.92,0,.22,0v.1l-.11.09,0-.24.27.05,2.76.34,2.71-.1.24,0,0-.1.19.12,4,.19h.75l1.25,0,1.09-.07.58-.1h.66l2.17-.16.67.07.65,0,1.42.07h.38l.38.1h.5l1.06.18.68,0,1.59-.06.44-.06H152l2,.18.56,0,.34-.15.68.18,2.38-.09.89.14h3.09l1.93-.06,1,0,.52-.18,1,.11,32.66.16h16.53l29.9.06,30.44,0,5.34,0,28.95.07h-4.68m6.67,0h0"/></g></g></svg>