<svg xmlns="http://www.w3.org/2000/svg" viewBox="0 0 419.53 419.53"><defs><style>.cls-1{fill:none;stroke:#000;stroke-linecap:square;stroke-linejoin:bevel;stroke-width:0.75px;}</style></defs><g id="WV"><g id="WV_315"><polyline class="cls-1" points="118.66 210.17 118.66 210.17 257.57 210.05 252.58 210 253.76 209.77 255.34 209.82 258.1 209.91 260.87 209.81 263.23 209.77 260.3 209.78 257.37 209.72 252.96 209.7 248.56 209.69 247.07 209.67 255.34 209.75 256.67 209.75 266.97 209.95 267.69 210.01 267.94 210.01 269.52 210.08 270.04 210 270.33 210.09 279.69 210.15 280.78 210.08 280.93 209.97 281.01 210.11 314.65 210.21 293.23 209.93 292.88 209.83 291.1 209.92 290.71 210 274.31 209.84 273.22 209.85 272.87 209.73 272.14 209.64 269.85 209.72 269.22 209.61 267.38 209.83 266.53 209.86 264.07 209.78 264.11 209.65 264.11 209.57 263.88 209.65 254.54 209.88 254.1 209.79 253.85 209.89 253.45 209.85 253.03 209.65 252.72 209.71 252.42 209.69 245.47 209.46 244.15 209.48 243.19 209.62 242.63 209.47 241.97 209.5 229.92 209.51 229.65 209.61 229.54 209.55 229.41 209.62 229.05 209.77 228.32 209.74 228.02 209.72 227.23 209.72 226.86 209.64 226.04 209.71 224.42 209.62 223.91 209.77 225.11 209.32 225.14 209.4 225.18 209.55 225.1 209.56 224.53 209.63 223.78 209.5 221.44 209.45 199.77 209.68 199.5 209.78 197.91 209.66 194.34 209.6 182.96 209.7 182.37 209.73 179.1 209.74 169.65 209.51 168.37 209.57 167.96 209.79 167.57 209.59 167.3 209.48 147.49 209.71 147.26 209.88 146.56 209.85 145.55 209.82 144.77 209.96 142.33 209.69 141.94 209.53 137.69 209.5 137.51 209.5 137.48 209.57 137.4 209.68 137.25 209.58 115.91 209.82 113.49 209.82 112.97 209.75 111.49 209.88 110.97 209.72 110.2 209.74 109.92 209.71 109.91 209.73 107.14 209.9 108.96 209.91 108.68 209.97 108.43 209.95 108.96 209.94 109.2 209.88 111.26 209.97 111.3 210.1 111.1 209.98 111.04 210.06 110.78 210.01 110.53 210.06 109.28 209.99 108.79 210.12 108.24 210.01 107.69 210.12 106.69 210.07 106.68 210.13 106.83 210 106.92 210.06 107.06 209.96 107.17 210.06 118.66 210.17 104.88 210.01 118.66 210.17"/></g></g></svg>