<svg xmlns="http://www.w3.org/2000/svg" viewBox="0 0 419.53 419.53"><defs><style>.cls-1{fill:none;stroke:#000;stroke-linecap:square;stroke-linejoin:bevel;stroke-width:0.75px;}</style></defs><g id="TX"><g id="TX_135"><path class="cls-1" d="M301.25,209.7h.17l-3.86-.18-.5-.08-1.26.18-4.28-.12-.76-.25-3,.09h-2.29l-.25-.22-.25.17-.26-.27-.51.41-3.82.28H277.8l-1.8-.88-.51.25-.26-.26-.51.57-4.89.38-5.43.18-22.27-.19-9.52,0-32.46-.12-2.27.07L187,209.52l-47.52.46-2.09,0-2.6,0h10l3.23,0,9.53,0,2.51.08h3.06l3.05.05,2.06,0-15.63.19-47.73.17,54.16.08h74.35l62.76-.05-62.89.05,38.34-.29-.93-.1h2.77l.53-.05,1.7.1-.12,0,0,0,.32.06,2.06,0,.41-.1,1,0h1.92l.29-.09,1,0,.32,0,.4,0,24.8-.27.24.07,0,.09.36.18,2.67-.19.23-.17.07,0,1,.22,2-.06-6.72-.08h-1.36l-2.85-.08-.36,0-3-.17,3.37.1-2.52-.11m-116.64,1h0m38.38,0H184.61m39.45,0h0m11,0h0m8.11,0h0m27.43,0h0"/></g></g></svg>