<svg xmlns="http://www.w3.org/2000/svg" viewBox="0 0 419.53 419.53"><defs><style>.cls-1{fill:none;stroke:#000;stroke-linecap:square;stroke-linejoin:bevel;stroke-width:0.75px;}</style></defs><g id="AK"><g id="AK_225"><path class="cls-1" d="M253.42,213l.28-.48,0,.14.41-1.39.32,1,.06-.14.11-.44.15.63,0-.14.33.23-.18-.29.2.26.05-.25.14.47.07,0,.68-.19.08-.55.28.43.19.38.2-.3.68-.66-.6.79.66-.62.34.65,0-.15,0,.21.18-.61.12.28.32-.24,0,.49.06-.47.23.38-.14-.56.26.33.08.2.33-.49.17.46,0-.62.19.28.23-.54.06.63.1-.48.25,1-.08-1,.19.23,0-.14.14.79h.07l.16.22.09-.68,0,.22.08-.36.25.3.15.37-.1-.42.31.07.26-.58.12.17.19-.42-.12.64.17-.19.3.54-.22-.63.28.58.24-.38.08.29.17.27.11-.59.06-.17.22.41.26.2.06-.28.11-.14.18.46.76-.28.2-.88.17.64.22-1,.11,1,0,.19.22-.55.47-2.21,0,.07.36,2,0-.39.22-1.08-.11,1.65.22-.93.09.82.11-1.23.07-.75.25.89.31.56-.13-.65.2.42.34-3.15.09.35.4,2.38.05-.21,0-.07.07.41.47,1.44,0-.12.38-2,.09.57.33,1.45-.2-1.75.39,1.62.21-.7.05-.32.16.76.15.09.05-.24.45-2.39.16,1.4.09,1,.27-.45.31-2.38.13,1.67.53,1.57.35.06.81-2.6.07-.87,0,3.62.16-1.13.16.49.21-.41.07-.29v-.14l.29,1.52.17,0,.05-.17.44-1.51,0,.44.38.48.24-.49-.17.8.25-.32,0-.08.32.68.16.38.36.2.34.29.38-1.22.06.21.74.71.06-.32.12,1h.3l.6-2,.52,1.07.11-.18.22-1.28.2.79.15.37.09-.75h.06l.55-2,0,.2.36,1.51-.19-1.6.2,1.28,0-.25.05,1.3.16-.49.46,2h0l0,.06.05-.43.15-2,.26.73.37.88h0l0-.29.07-.41.15.62.1-.08.07-1,.09,1.72.09,0,.07-.29,0-1.45-.06.21,0-.06-.06.42-.12-.39.24,1.37,0,.11.12-.56.12-1.06.22.57.09.43.15.87.08-1.11.09-.65.21,1.31.05.39.11-1.81.09.2.14,1.16.18-1.1.23-.73.11.62.35.74-.18-.88.2.54.24-.76-.14.8.27-.36.34.81.08-.67.08-.23.11.51.36.2.13-.23.2-.8.06,1.08.16-.65.25.41v-.84l.24,1,.09-.79.05.46.34.7-.26-.95.29.81.42-1v0l.35.5-.12-.56.16.54.44-.69v.08l.24.18.07-.18.33-.28-.16.35.18-.13.09.06.23-.21h0l0-.17.26.71,0-.28.11-.29,0,.49.24-.27.49.41.17-.1.26-.55,0,.71.24,1,.08-.62.16-.64.21.16.28,1.07.09-.44.09-.31.08.77.16.63.19-.25.19-1.16.16.86,0,0,.07-.14.07-.05.42-.32.1-.06,0-.25v-.29l.13,1.38.22-.81.05,0,.05-.68.2,1.46.05-.48.2-.85.08.8.12.8.16-1.3,0-.44.12,1.49.18-1.14.18.14,0-.33.11,0,.11-.59.15,1.1.11.23.19-.33.57-.93.21,1.08.13-.17.31-.85.06.09.23.34.12-.19.08-.57.24.3.32,1,0-.53.09-.6.18.92h0l.35-.41.09-.65.35.31.32.6-.23-.63.31.58.16-.3.1-.8-.05,1.07.26-.18.24-.14.43-.91.47,1.92.09-.63.25.54.09.25.08-.5.17.35.13-.7v1.14l.25-.54.21.94.07-1.32.07.43,0-.36.13,1.18.16-1.09.07.18.21.88.15-.7,0-.09.1.31.14,0,0,0,.06-.3.15-1,.27.32.33,1.34.25-.33.51-1.66.32.22.35,1.49.05-.22.46-1.21-.23,1.59.32-1.46.23,1.71.21-.93.1-.91.16,1.33.13-.81.21.38.1-.79,0-.18.15,1,.08-.1.05.41v0l.07.18.17-1.07.05-.57.28.54.3.39.07-.43.05-.31.24.56.05-.37.29,1.07.11.57.22-.79.18-.73.11,1.42h0l.33.27-.37-.42.38.35.11-.34.23.41.19-.36.2.27,0,.09.09-.47.19.35.23.12-.14-.46,0-.07,0,.53h-1.12l.11-.3v-.24l-.15.52-.2,0-.09-.36.21.42-.45,0-.87,0,0,0,.35-.4,0,.25.28.15,0-.22,0,0,.34-.34-.28.54.29-.45v-.47l-.36.92-1.32-.12h.69l.38-.42.13.55-.16-.84-.23.72-.41.09-.25,0,.19-.09h-.28l-.49-.34,0,.17-.18.26-.11-.47v.05l0-.17-.23.59-.07-.14-.26.13.18-.39-.26.25-.24.06.06-.38-.17.31-.44,0v.1l.14-.21-.47.31-.34-.33-.27-.16.06.49-.11-.27-.31.27.21-.4-.25.28,0-.1,0,.22h-.27l-1.48-.06,1.68.05-1.33-.13-.07-.57.31.71.06-.28.41.28,0-.08.43.07-1.12-.16-.22.17-.08-.12-.08-.45-.25.51,0-.22-.1-.41-.08.69-.16-.35-.08,0-.09.3,0,0-.31.09.21-.29-.23.26-.25,0,.18-.21-.2.05-.22.19-.15-.16-.1.08-.14-.28-.06.05-.07-.38,0,.71h-.22l-.55-.29.1-.68.1,1-.52-.58-.05,0-.05-.15-.1.62-.25-.5-.11.21,0,.22-.18-.67-.08.16v-.05l-.24.72h-.42l-.17-.11.54,0,0-.08-.31-.79v1l-.06-.68-.34.71v0l-.4-.09,0,0-.22-.08.13.21H300l-.13-.32h0v-.14l-.3.46-.06-.15-1.13.12,0-.43V213h.28l.49-.27.32-.34-.14.65.16-.65.08.65h-.38l-.86-.22,0-.56.15.78-.45-.2v-.31l.16.5h-.45l-.16-.23-.11-.36-.19.49,0-.27L297,213l.14-.67.39.64,1-.47.5.51.34-.32,0-.32-.09.64-.28-.38-.38.38.34-.51-.38.25,0-.41-.17.65-.11-.13-.39.1v0l-.92-.32-.19-.42.46.81.1-.08.31.08h0l.31-.64-.21.65.24-.38,0-.52-.3.9-.11,0-.11-.91-.23,1-.72-.29.16,0-.25-.1.13.42-.21-.29-.34.24-.06-.06-.12-.3v-.13l.35.54h-.09l0-.24-.06-.38-.16.57-.1,0-.2.07.19-.55-.3.27-.22-.16-.06.44h0l-.17-.3-.2-.37.1.67h-.29l0-.24,0-.26-.33.5,0-.29.42.28-5.34-.49,0-.23-.17.65h-.14l-.24.07.23-.09-.32-.11-.16-.21-.13.4h-.08l-.13-.26-.19-.22-.06.46,0-.07-.28.11.21-.44-.2.09,0-.21-.21.56h3.57l-1.19-.32v-.13l-.26.43h0l-.05-.17-.76.18-1,0,0-.29-.28-.37.2.59-.35-.33-.12.45-.23-.45-.21-.19.28.64.24-.39.21.38-.51-.24-.85.1,0-.39.36.54h0l-.25-.26-.14.26-.21-.46-.51.46.42-.68-.43.67-.41-1v.81l-.15.22-.1-.57-.08,0-.36-.06.17.29-.18-.22-.07.5.1,0h.41l-.2-.23-.06-.55-.18.77-.08,0-.44-.9-.18.67-.17-.38-.24.48,0-.13.39.29h.17l-.54-.12.07-.2.12-.4-.1.65.32-.26.64.28v-.61l.13.66.2-.11.27-.23-.19.34h.11l.8-.26,0-.53-.11.79h.61l-.41-.31v0l.43.35.14-.57.11-.47-.17,1h1.53l-.71-.2v-.51l0,.71h-.92l.09-.33,0-.14.36.47,0,0,.3,0-.24-.28,0-.17-.22.45-.07,0-.31,0,.11-.38-.13.34,0-.19.37.25-.11-.27-.28-.25.21.52-.29-.43-.22.43-.07-.63-.06.42-.26.14.27,0-.26-.51v-.06l-.05.6-.18-.15-.19.15-.05-.4-.11.39-2.53,0,.36-.28,0-.77-.37,1.08-.86,0-3.46,0h0l-.54,0h-4.19l2.83,0-1.89-.08-.16-.63-.18.64-.13,0,0-.22-.24-.58.59.87,1.11-.27h-.45l0-.5.37.76.84-.07-.17-.12-.08-.79-.26.48-.46.43-.32-.48-.24-.13.1.28-.17-.05-.44.4-1.47,0h-1.71l-3.67-.3.32,0-.15-.3-.14.47-.43.1-1.29-.15-.47.13H262.1l-7.52-.39,0-.25-.07.66H251.7l.16-.27,0-.38-.1.65-.2,0-.24,0,.11-.73v-.08l-.08.68-.19-.1-.47-.13v0l-.24.34.51,0,.16-.15,0,0,0-.58-.14.78-.16-.07-.26-.73.1.8-.25-.24-.25.24.17-.59-.25.38v-.11l-.15.31h-.15l-.18-.12,0-.17,0-.07-.09.34-.19-.19-.28.22h.53l.11-.17v-.2l.34.37h.53l-.05-.28-.24-.26.53.54-.64-.49-.28.49-.08-.14,0-.22,0,.26h-.28l-.31-.11.22.21-.25,0v0l0-.38h0l-.16-.27-.15.65h-.28l.57-.34-.07.05-.13-.48.43.77h.7l-.68-.24-.19.07-.18-.65-.16.82-.21-.43-.07-.5-.21.93,0-.06,0,.06-.06-.69v-.09l-.09.69-.23-.44,0-.24-.12.66h0l-.2.11,0-.17-.11,0-.15.13v-.56l-.13.23-1.47-.34v-.07l.26.74-.56,0-.13,0,.05-.77-.18.4-.08-.12-.08.49-.12,0,0,0-.1-.72-.17.44-.17.28.11-.36.28.36h.4l0-.21-.21-.3.13.51h-.26l-.19-.3-.15.28-.17,0,0-.25-.16-.22.07.51-.23-.1-.17.1-.07-.64v-.19l-.26.83v0l0,0-.15-.6h0l-.17-.58.57,1.17h.3l-.1-.33-.11-.19,0,.49-.27-.36-.26-.28.45.67-.5-.35-.13.3-.11-.84,0,.07,0,0-.07.37-.34.47h.79l0-.22-.07-.35-.25.58-.07-.33,0-.09.39.42h.41l-.05-.34-.09-.18.61.52h.22l-.07-.31-.3-.23.12.53-.15-.29-.31.3.15-.74-.19.49-.15-.38-.07.63h-.44l1.52-.16-.06-.17v-.09l.36.42.66-.12-.07-.19-.15-.3.07.61-.22-.06-.1.05-.07-.49-.17.39-.12-.5.32.61-.55,0-.2,0,.13-.34-.1-.53.21.87.23,0,.18-.48.18.51.06-.29-.27-.34.22.63-.3-.09-.26.09,0-.33-.05.11v-.31l.09.53-.41,0-.25-.64.21.69-.32-.13-.34.12.23-.6-.25.58-.25-.58-.28.59h-.13l-.06-.2-.08-.49-.12.69-.14-.51-.38.52.2-.81-.23.69,0-.34,0,.46-.27-.07-.15-.48L241,213l-.52-.42,0,.24,0,.18v-.5l.36.5h-.54l0-.33v-.09l0,.42-.3-.06-.28-.5.28.56h-.36l0-.17.06-.13.07-.36.26.66.14-.25-.22-.24-.16.49-.08-.22-.32-.51.28.71-.34-.56-.19.58h.5l0-.24v-.31l-.08.55-.25-.19,0-.37-.2-.26.19.82-.32-.44-.3.44.28-.61-.38.36h.13l-1.08-.24,0-.23.17.73h-.44l-.34-.26-.14-.45.13.71-.33-.33-.28.33-.06-.33-.09-.33L236,213l-.16-.45-.31.45.09-.94.51.9.06,0-.16-.34-.25.34-.08-.42-.14.42-.22-.23v-.08l-.16.31-.12-.08-.43.08,0,0-.12-.52.18.57-.39,0-.1-.06v-.15l0-.29L234,213l-.15-.18-.32.17,0-.11-.16-.66.2.78h-.37l-.05,0,1.9-.25,0,0,0-.51.39.84h0l.17-.3.19.3h-2.76l7.9-.22-.05-.34-.14.55-.13,0-.13-.71-.21.6-.27.15-.09-.1,0-.2-.11.27h-.19l-.28-.57,0,.23,0-.44-.14.71-.17-.55-1,.64h1.83l-10.16-.27-.08-.28-.17.56v-.14L229,213l0-.55-.05.14,0,.22-.22-.63-.33.81.23-1-.2,1,1.78-.2,0-.18-.37.37-.66-.05-.23-.21.15.24-.26-.16-.1-.11-.25.29h-.27l1-.28h0l0-.32-.32.61h0l0-.31-.25-.25.17.53-.25-.24-.18.29,0-.45-.11.07-.44.37.33-.53-.24.13-.07-.31-.09.71-.18,0,0-.3-.19-.37.09.7-.27-.49,0,.49.26,0,.23-.6-.5.64-.05-.12-.38-.54,0,.52.28.14h.06l.07-.13,0-.31.07.43-.42-.09-.18-.16.11.22-.25,0-.25-.32v0l.38.35h0l-.3-.27-.05-.37-.09.64-.18-.13.08-.07.27.2h3.12l-.91-.3v-.12l-.2.42H228l-.44-.23-.11-.36-.14.59h-.06l-.13-.3v0l.17.35-.49,0-.1,0h.47l0-.22v-.08l-.16.3-.14-.07-.43-.28-.1-.23-.12.58-.09-.08,0,.08h.39l.37,0,.05-.06v-.31l-.21.23,0-.17-.26-.09.42.39-.44-.09-.34.1.23-.57L226,213l-.17,0-.07-.25-.31-.28.39.53-.42-.28L225,213l.54-.26L225,213l-.07-.2-.27.14-.14-.43-.23.5h-.63l.13-.32,0-.14-.11.45h-.38l.13-.37-.33-.24.29.43-.3-.24-.27.44.21-.51-.28.19-.38.32-.06-.19,0-.37,0,.56-.31-.18-.2-.47-.19.65-.17-.28v-.12l-.15.4-.15,0-.33-.66-.1.16,0,.51H221l-.06-.5-.31.5h-1.39l.77-.28,0-.14,0,.43-.29,0-.24,0,.19-.17-.27,0-.05.14-.16-.57v-.11l.38.69h-1.43l.07-.32v-.11l.06.43h-2.93v0l-.35-.08v.05l-.46.07-.29-.06,1.17-.06-1-.22v-.25l-.07.6h-1.63l1.57,0-.64-.23.17-.4-.14.68.31-.16.32.16,0,0,.3,0-.49-.38-.26.38,0-.21-.18-.48.17.69h-.33l-.17-.44.22.44.1-.33-.26-.19-.11.52,0-.33.1.33-.41-.16-.13.15.12-.56h0v-.06l-.11.62-.14,0-.21,0,.45-.51-.5.28v-.25l-.09.48-.24-.17-.37.16.34-.2-.35.2h-.08v-.53l-.21.53h-.13l-1-.33v0l0,.38h-.52l.18-.3v-.29l-.35.6H209l.35-.23v-.17l-.36.4-1.18-.24.06-.2-.06.44h-.36l0-.33v-.27l-.37.61h-2L203,212.7l0-.08.51.36,0,0,.55,0h-1.54l-1.6,0,.25-.22,0-.13-.39.37-.37-.3-.17-.15.19.45h-.47l0-.27h0v-.18l-.05.45h0l-.39-.32,0-.09-.16.41h-2.64l.62-.26,0-.17-.39.42-.17-.28-.19.3-.12-.29.41.29,8.64-.25.06-.26-.35.51h.59l11.25,0-33,0,.86-.32,0,0-.07.37-.24-.19-.26.19h16.46l-5.6-.3,0-.13-.16.39-.05,0-1.56.05h-.09l-6.49,0-2.32,0h-3.82l-3.11-.26-.2-.12-.08.31v0l-.17.09h76.52m49.84,0-1.37,0,1.52,0h-.15m-59.08-.23-.29.23.37-.54-.08.31m-12.27.22,0-.2-.41.21h.37m-25.33-.17.13.14-1.52,0,1.39-.18m-57.21.12.24.06-.25-.3v.24M178,213h0m12.7,0h0m110.54,0,0,0,1.91,0-1.23-.35,0-.1,0,.45-.25-.13-.07-.26v-.37l-.25.71h0m-56.35,0h-.28l.58-.08-.3.08m-15.4,0,.65-.37v-.08l.16.45h.12l1,0-.26-.3-.32-.24.2.55-.22-.51-.27.5-.09-.32,0-.18-.11.47-.2-.11-.14.16-.21-.44.21.44-.41-.37,0,.37h0m-26-.14-.1.14h-.3l.4-.13h0m-54.69-.1.24.24-.23-.25-.26.25-.07-.15.12-.1.16-.11-.06.36.1-.24m29.5.24h0M191,213h0m106.43-.24.15-.12.2.32h1.13l1.09-.07,0-.07-.11-.43-.23.37.29.14-.08-.44.12.27.08-.36.19.54h0l.14.08h.19l1.05-.06-1.81.06v-.27l-.08-.08-.16.34,0,0-.4-.07,0,0-.2-.22-.25.28-.41,0,.39,0-.39,0-1.14-.07,1.25.1-1-.24m-53.17.19-.22,0,.13-.57.44.56h.2l-.27-.47v-.17l-.14.66-.14,0m-9.94,0h.05l-1.07-.32h0v-.07L233,213l-1.51,0,.93-.27.06-.18.13.5h.52l-.54-.14-.09-.39-.1.53h-.14l-.61-.3v0l-.05.36h-.23l-.23-.32v-.09l.36.41.4-.31.06-.24-.2.53-.21-.09-.29-.39-.08.31-.34.19v0l-.82-.22.17.09,0-.44-.28.61-.5,0,.11-.1,0-.23.24.29.05,0,.15.09-.21-.25.28,0,0-.25-.37.49v-.19l0-.32.12.51-.41-.1-.73.1h.74l-.14-.3.07-.28-.41.58-.84-.26,0-.13-.12.39-.17-.06-.15.05,0-.42,0,.11-.07-.18-.19.49h-.17l0-.16v-.13l-.11.31-.22,0h0l.48,0,.92-.25-.24,0v-.23l0,.45h-2.43l1.17-.29v-.13l.38.42,1.17-.07v-.19l-.06.11-.27-.42,0,0,0,.37.12.21-.06-.32.2.32.7-.08.31.09-.19-.13.23.11.53-.24.07.26-.37-.09-.21-.12-.17.21h.26l0-.2-.28-.35.11.41-.16-.32-.41.46h.62l.29-.18v-.12l-.16.3-.15-.4-.05-.16-.2.48L228,213h0v0h.32l.59-.26v-.12l.05.38h.28l0-.27.34.14.17.14-.17-.41h.24l.11.29.2.12-.49-.56-.05.28-.08.28h.38l.76,0-.23-.22,0-.18.35.45.22-.08-.23-.14,0-.26-.21.46-.09-.09-.34.08.22-.22-.24.18,0-.12.38.19h3.88m-31.68,0,.07,0-.53-.1.46.13m-54.88,0-.18-.32v-.19l.32.51h.21l0-.25,0-.06.05.31h-.43m33,0h0M191,213h.94m110.34,0h0l-.89-.25,0-.15-.25.38-.06-.18L301,213l.12-.27.23.23.53,0h.38m-54.12-.15.39.15.19,0-.79-.22,0-.11-.26.36h.07l-.22-.34-.05-.1.05.44-.3-.13-.28.07v-.18l-.06-.34-.13.51-.14-.34-.43.35,0,.06,0-.35.34.35,0-.53-.18.53h2l-.23-.15m-14,.15h.11v0h0v-.05h0V213h0v0h0v0h0v-.06h0V213h0v0h-.06v-.11h0v-.06h0V213h0m-32.07,0,.31-.12-.3.12.33-.06,0,.06-.27-.27-.1,0-.35.22h.36m-53.76,0,.13,0h-.58l.45,0m34.21,0h0m10,0h0m109.61,0,.43,0-.53-.12.1.07m-56.3,0-.12-.3v-.05l.4.35.12-.13v-.21l-.17-.37.28.71-.45-.42,0-.22-.08.63-.18-.08,0,.09.22-.12.13.12.05,0-.25-.24,0-.19.14.46h0m-13.6,0,.07-.31v-.13l-.39.46h-1.37l.62-.33,0-.08V213l.29-.17.12-.12.23.29.16-.32.22.26v0h0m-32.41,0h.55l-.15-.29-.11-.2-.15.49h-.14m-51.6,0h.08l-.84-.27-.05-.14.41.41h.4m34.89,0h0m11,0h1m104.83,0H300v0h.24v-.2h0v.11l0-.24v0l0-.12,0,0v.08l0,.13v.06l0,0v-.1l0-.19,0,0h0v0h0v0h0V213h0v-.2h0v.05h0v0h0v0h0v.06h0v0m-54.75,0,0-.28-.19-.15.18.43-.34-.32-.06.32,0-.35.34.35h.07m-15.05-.07L230,213l0-.27v-.16l-.24.43h-.05l-.18-.47-.23.37,0,0,.63.14.55-.07h-.33M200,213h0m-52.74,0-.56,0,.57,0-.5-.33-.07-.17,0,.5.36-.13.06-.38-.24.51h.34m36.55,0h0m47.07,0h0m69.81-.18.35.18,0-.16,0-.16-.1.27-.21-.11-.1.16.42-.63.05.35.31.28-.26-.31.29.08.37.23h0l-.1-.11-.23.11-1.12,0,.33-.15m-54.54,0-.19-.54.16.63-.32-.34-.06-.21-.19.57v0h.61v-.13m-16,.06L230,213l0-.27v-.16l-.24.43h-.05l-.18-.47-.23.37,0,0,.63.14.55-.07-2,.05h.19m-29.34,0h0m-52.74,0,.07,0-.29,0-.12,0h-.57l-1.27,0,.91-.29,0-.31.38.62.35-.31.06-.33-.27.64.52-.12.29.12-.25-.63.21.61m38.35,0h0m67.34,0h0m46.9-.06.06-.12-.36.17-.06-.13.16-.43-.32.57H299l0-.06h0m-53.56.06h.06l-.1-.36-.31-.15.12.43-.13-.31-.3.39h.66m-16.71-.06.24.06.09-.13.27.13-.56-.26-.05.16-.26.1.27-.06h1.33l-.1-.2v-.16l-.24.43h-.05l-.18-.47-.23.37,0,0,.63.14.55-.07-2,.05h.19m-31.85,0h0v0h0v0h0v0h0v0h0v0h0v0h0v0h0v-.05h0v0h0v0h0v0h0v.08h0v0h0m-52.84,0,.27.06-.19-.3-.42.28-2,0,2.12-.3.1-.3.15.54h0m41,.06h0m126.36,0h.23l-1.05,0,.82,0m-12.43,0h.54l-.25-.33-.2,0,.15.13-.24.06V213l.22-.2.11.2h.33l-.49-.26v-.22l-.16.4-.16-.19-.18.27h.66l-.56-.25v-.08l-.13-.16-.26.49,0,0-.12-.46.19.49,0-.26v-.28L298,213l-.09-.31,0-.14.38.45.27-.17-.43-.16L298,213l-.26-.47-.1.46-.27-.11-.12.09.52-.39v.4l-.26-.12-.08.13-.48,0-.47,0,0-.17-.14-.25.49.43h-.27l1.7-.3,0-.15-.09.45h.4l.57,0-.76-.08.4.11m-53.2-.2-.11.19-.26-.46-.13.47h.73l-.23-.2m-16.92.2,0,0-.31,0h.35m-31.35,0,.07-.29L197,213h.19l-.69-.28v-.08l0,.36H196l0-.28v-.12l-.27.4-.07-.07-.22-.06.11.14h-5.19l5.57-.26v-.23l.23.49h1.16m-56.12-.12.1.12h-.44l-.33,0,0,0h.08l-.82-.21-.13-.6.47.76.66,0,.38,0,.05-.38.14.43h.58l-.72-.12h0m44.1.12h0M311,213h.06v0h0v0H311v0h0v0h0M296,213h0l-.74-.32-.08-.12L295,213l0,0h.21l-.24-.55,0-.1.41.69.31,0-.11-.17-.06-.37,0,.58-.21-.14,0,.13-.21-.31-.07.17,0-.15-.28.3h0l-.11,0,.49-.29,0-.06-.43.39-.87-.3-.14-.22-.09.46-.09,0-.33-.14.28.22-.32-.18-.18.2-.19-.07-1.35.07h5.56l-.13-.41-.09-.12-.06.52-.11-.15-.71-.23,0,.23-.09-.34-.28.5-.43-.11,0,0-.82,0,.33-.14-.09-.38.37.54.05-.26,0-.35.17.61H297l-.87-.29v-.16l.37.45H296M245,212.75l-.5.21.36-.48,0-.14-.29.55,0,.09.28-.4.1.4.31-.1-.19-.21v.08h0m-17.58.23h1.37l-2.52,0,2.41,0m-38.22,0,.16-.31-.1.12,0-.21-.06.41-.24-.25-.11-.13-.3.37h.67m-53.07,0,.15,0-.4-.42v-.15l.19.57.07,0m47.92,0h0m124.94,0-.07-.22,0-.45-.32.66-.22,0,.4,0-.18-.31-.3-.18V213l-.05-.26-.11.26-.05-.52.47.52h.44m-17.54,0-.38,0v0l0,0h1.61l-.07-.29-.21-.19-.13.29-.43.19h0l-.26-.19-.08.18m-55.86,0H237v0h-.16v0h.07m-13.17,0h0m-34.32,0,.09-.1-.91.15.82,0m-53,0,.3,0h-.36l.06,0M186,213h-.05m122.26,0h.57l.4,0-1.08-.06h.11m-12.38,0h.42l-.08-.28-.08-.29.44.57h.4l-.11-.14-.09-.31-.07.45-.18-.2-.23.2.22-.5-.31.11-.09.31-.31.07.09-.18-.12.18-.38-.2-.41.2h-.13l.27-.37v-.53l-.34.92h0l-.32,0,.29-.17-.31.07,0-.5.19.62H294l-.05-.43h0l-.06-.18-.2.6-.06-.08-.05-.23-.09.3-.2,0-.31,0,.19-.35-.06-.31-.23.67,0,0h0l.23-.4v-.08l.13.51h.19l0-.27h0l-.07-1-.14,1.28-.12-.15v-.07l-.14.22-.17,0-.18-.22,0-.23.15.47-.43-.18.08-.38-.43.56-.92-.27.31-.07v-.15l.08.44.21,0,.39.08-.2-.27.07,0v-.08l.18.31.14,0,.34,0-.29-.18.31.16.65-.05.39.07,0-.13.27-.28-.15.41.18-.27,0-.07.05.34h1.85m-63.61,0-.38,0-.21,0,.64,0h-.05m-12.82,0,0-.19-.16.2h.11m-30.84-.05.05.06-.29-.13-.1.12H188l0-.19,0,.09,0-.33-.19.44h.55l-.1-.11.39-.23.22.09-.29.22v0m-52.82-.1.31.14-.31-.14m51.34.16h0m121.13,0h.57l-.68,0,2.64,0,.39.08-1.46-.08.18-.27v-.17l.07.52-.41-.11-.19-.37.48.48h-.61l-1.17-.12,1.48.12-1.41-.31,0-.15.09.44.22-.3.05.3,0-.38-.21.4-.39-.31v-.13l.24.44.11-.09.1-.5-.51.59v0l-.09-.67.41.72.39-.11-.18-.26-.29,0,.11.25-.12-.22,0,.37,0-.52.38.44.26-.31-.11.36.22-.16.1-.3.27.49h1.62m-19,0h.28l-1-.31-.23-.19.12.5h-.21l-.06-.31,0-.06.32.37,0-.07.37-.26L291,213l.25-.29.4.29h0m-61.39,0,0-.14L230,213h.27m-10.39,0h0l-.26,0,.23,0m-32.26,0h.31l-.11-.32-.27-.14.21.46-.26-.2-.27.2-.06-.34,0,.24,0-.21L187,213l-.26-.07-.33.07h-.3l.83-.25.06-.33V213h.54l-.16-.28,0-.15.2.43h0M173,213l.39-.08-1.14.08H173m130.75,0,.1,0-.23,0h.13m-13.39,0v-.5l-.25.51H290l-.15-.32-.14-.36.44.68h0l.27-.72-.34.54-.08-.41-.15.57-.16-.4-.45.4h-.11l.3-.06,0-.26,0-.18-.32.51-.07,0-.2-.4,0-.22-.14.64-.19-.07-.37.07.12-.31-.15.24,0-.12L288,213l-.19-.06-.29.07.06-.34-.1-.22,0,.56h1.28l-.16-.34,0-.14-.24.33-.06.15-.14-.25h-.1l-.28.23-.1-.31,0-.09-.1.39-.19-.15-.37-.37,0,.35,0,.2-.06-.49.35.5-.32-.07.89-.29,0-.23-.1.59.38-.15.07-.12.14.26.09,0,0,0,.13-.31,0-.23.14.54H290l-.27-.28-.06-.27-.14.55h-.19l.08-.27,0-.09.14.29h.11l.17.06.07-.25v-.33l.25.55.08-.06-.06-.32.69.41h1.64l-1.17-.28-.18-.3-.12.31-.19.24-.16-.18-.21-.23.11.36-.2-.18-.13.26-.2-.21L289,213l0-.23,0-.18.07.35.25-.08.34.14.55-.1v0l.3.06,0,0,.76,0,0-.21,0-.06.18.24h.08l.23-.29v-.07l.19.39h1.51l-.12-.29,0-.12.09.41h-.35l-.33-.16-.15-.23-.14.38-.72-.52-.06.09-.2.4-.1-.38,0,0-.05.22-.16-.31-.26.53-1.17-.29,0,.12,0,.17.27-.18.09.18h.18l-.27-.07.06-.16.12-.29.15.47.05-.19.36.22,0-.1.26-.16-.36.28h-.31m-62.5,0h-.14l.68-.08-.54.07M218,213l.33,0-1.25,0H218m-31.74,0,.06,0-.44,0,.38.08m-15.71,0h.49l-1.1-.13.61.13m138.4-.27.22.27-.47-.49-.06.27-.15-.19-.21.41-1.57-.31-.11-.15V213l-.18-.11V213l.34-.07h0l-.33-.53-.13.55-.17,0,0-.35h0l-.28-.28.07.63-.13-.48-.07.48-.28-.25-.28-.11.19.35-.25-.31-.42.32.12,0-1.1-.24-.14-.26.5.55.75,0-.79-.28,0-.24.12.54-.43-.25,0-.23.23.49-.48,0h-.6l-.15-.15-.2.12-.33.06.62-.2-.68.14-.33-.18-.11.16-.3,0,0-.3-.07.26,0-.19-.32.16-.28.1.09-.53-.15.52-.29-.06v-.13l-.07-.36.4.56H307l-.24-.28-.27-.06.15.25-.21-.13-.33-.39-.1.43-.18.18-.21-.12-.42.08h1.14l.12-.23-.48.28.71-.14.57.14H309l-1.94-.07,1.89-.2m-21.59.17.12.1-.34-.1-.11.08-.38-.06.8.08-.09-.1M235,213h.11v0h0v-.09h0v0h0v0h0v.1h0v0h0v0h0v0h0v0h0v0h-.07v0h0v0h0v0h0v-.17h0v-.15h0v.08h0v.09h0v0h0v0l0,0h0v0h0v0h0v0h0m-19.5,0,0-.12-.07-.17v-.14l0,.43h0m-29.35,0,.18,0-.2-.34-.34-.08.25.42-.26-.41-.2.41h.56l-.06-.22.07.2m.23,0h0m119.16,0-.38,0,.93,0h-.55m-17.94,0h0v-.07h0v0h0v-.15h0v.24h0v-.12h0V213h0v0l0,0h.11v0h0v-.05h0v0h0V213h.05v-.13h0V213h-.05l0,0v-.16h0l0,.14V213h0v0h0v0m-53.34,0v-.11h0v.07h0v0h0v0h0v0h0v0h0v-.05h0v.08h0v0h0v-.15h0v.11h0V213h0v0h0v0h-.07v-.14h0v-.06h0v0h0v.06h0v-.16h0v.22h0v0h.11m-21.61-.13-.28-.32.21.49-.25-.24-.1.24-.1-.45-.1.1v-.13l.33.48,0-.11,0-.35.06.46.17-.17m-27.07,0,.08-.44-.44.58-.09-.22-.14-.24.18.46-.39-.38-.29.38,0-.6-.07.35-.16-.29.06.54-.16-.19-.2.19.29-.42-.43.27-.2-.25.29.4-.43-.16-.12-.35-.24.51-.1-.32V213l-.32-.07-.16-.08-.2.15-.32-.29,0,.18-.75,0,.73,0-.73,0,0,.06-.18-.53L181,213l-.31-.25v-.11l-.09.36h-.22l-.53,0,1.49-.27,1.85.21-.24-.34,0-.22.19.64h.07l.54-.27.11.18.22.09-.24-.32-.31.18-.26-.2-.12.34h-.83l.93-.14,0-.19.07,0,.09.31.16-.3.2.35.08-.23v-.1l.26-.25.07.58,0-.13,0-.35.06.48h.24l.51,0v-.33l.3.38,0,0,.2,0-.08-.41.11.14,0-.18-.37.45,0,0-.06-.35V213l-.28-.33-.31.33.37-.37.24.3.44-.07h0m-1,.14h0m122.12,0H307l-.06-.24,0-.19-.18.38-.1-.06L306,213h.72m-17.88,0h0v-.06h0v0h0l0,0h.05v0l0,0v0h0l0,0h0l0,0h0l0,0,0,0h0l0,0h.21v0l0-.07h0v0h0v0h-.09l0,0v0l0,0h0l0,0,0,.05,0-.05h-.1l0,0h0l0,0,0,0,0,0h0l0,0,0,0h-.08m-55.17-.09V213h0v0h0v0l0-.14v-.06h0v.12h0v-.15h0V213h0v0h0v-.1h0v-.11h0v0l0,.05,0,.05v-.08l0-.15,0,.23,0,.11h0l0,0,0,0h-.05v0h0v-.07M210.5,213h0v0h0V213h0v0h0v0h0v0h0v-.2h0v-.08h0v.06h0v.13h0v.05h0v0h0v0h0V213h-.18v-.05h0v0h0v0h0v0h0v.07h0v0h0v-.14h0V213h0v-.06h0V213h0m-30.74,0,.22-.22L175,213l4.91-.35v0l-.17.4v0l5.93-.39v-.16l-.25.58-.08-.21-.29.21.08-.34-.11.07,0-.19,0,.46-.28-.38-.33.38.17-.6-.19.56-.1,0,.08-.37h0l0-.17,0,.54-.23,0-.23,0,.19-.3-.23,0v-.08l.18.42h-.49l-.06-.3v-.21l-.09.51-.25-.38V213l-.34,0-.52,0,.48-.12-.49.07-.13-.24.05.29-.27-.18-.28.18,0-.27-.31-.06.24.28-.28,0,0-.44-.32.53-.16-.25v-.11l-.09.36h-.22l-.53,0,1.49-.27,1.85.21-.24-.34,0-.22.19.64h.07l.54-.27.11.18.22.09-.24-.32-.31.18-.26-.2-.12.34h-.83l.93-.14,0-.19.07,0,.09.31.16-.3.2.35.08-.23v-.1l.26-.25.07.58,0-.13,0-.35.06.48h.24l.51,0v-.33l.3.38,0,0,.2,0-.08-.41.11.14,0-.18-.37.45,0,0-.06-.35V213l-.28-.33-.31.33.37-.37.24.3.44-.07h0m-22.06.14h.3l-.1-.29v-.1l-.14.36h-.15l-1.94-.09-.2.13-.18-.13-.13.08,1.92,0h.63m143.17,0H307l-.06-.24,0-.19-.18.38-.1-.06L306,213l1,0-.66-.41-.05-.23V213l-.2,0h-.26l0-.21-.34-.32.32.56-.32-.55-.32.55,0-.08-.12.07.07-.46v-.06l-.27.53h-.1l-.27-.56-.07.38L304,213l.21-.83-.22.63,0-.17,1.17.37-.4-.51,0,0,.64.53h1.49m-49.13,0h.39l-.55-.1,0-.19-.11,0,0,.22-.11,0-.18.08h.61m-24.37,0,.09-.29-.19.27.1,0m-22.86,0h0l-.36-.12.32.12m-37.65,0,.11-.12-.36,0,.25.15m-11.79,0,0,0,0-.3,0,.26m142.52-.2.05-.08-.39.32-.07-.3,0-.25.36.55,0-.08.06-.16h0m-49.17.24h0m-21.75-.26-.38.26.63-.36-.25.1m-21.39,0,.27.25-.27-.25m-38.38.25,0,0-1.28,0h1.25m32.45,0,.06,0-.26-.16.2.14m97.81-.05h0v0h0v-.16l0,0v0h0v.19h0V213h0v0h0v0h-.05v0l0-.1v-.06h0v.08l0,0v0h0v.07l0,.08v-.08h0v-.07h0v0h0v.2h0v0h0v0h0M251.9,213h0v0h-.07v0h.07m-13.42-.12,0-.18-.32.3.3-.12m-27.72.12.14-.29,0-.07-.37.36v-.23l0,0,.39.26v-.35l0,.35h-.12m-39.41-.18.1-.13-.31.31.21-.18m33.46.18h0l-.17-.07.15.08m98.11,0-.49,0,.62,0h-.13m-51.91,0,.36,0-1.27-.49,0,.22-.12.27-.11-.34-.13.25-.11-.22.45.31h0l-.08-.28-.07-.27-.17.55-.06-.06-.21.06,0-.21,0-.32.36.53h1.41l-.19,0m-13.7,0,.16,0-.07-.34.13.2.09-.23-.45.42h.14m-27.07-.05.13.06-.32-.43-.15.43h.34v-.06m-39,.06.18,0-.09-.28-.12-.25-.2.29-.12.26h.35m31.63,0h1.95m97.38-.08v-.12l.33.2h.12l-.59-.09h.13M252.1,213h0m-20.41,0,.15,0,.18,0h.61l-.94,0h0m-22.88-.13.25.15-1.36,0,.25-.38v-.1l.36.51.57-.23-.71.23.65-.15m-39.51,0,.1-.06-.47.16h-.56l.93-.1h0m2.55.1h3.51l-9.45-.32-.26-.24-.05.31-.32.25h10m127.38,0h.08l-.65-.35.09,0v-.17l-.09.56h.57m-54.32,0h.38l-.31-.22v-.11l0,.34h0m-14.12,0h.08l-.11-.2,0-.11-.19-.06.08.37-.18-.2-.28-.16-.08.36-.32-.17,0,.15-.32,0,.45-.19-.47.14-.35,0,.31.09-.34,0H230.7v-.19l0,.23-.36-.13L230,213h.64l.11-.42.24.42.15-.07-.43.07,0-.11-.05-.25-.25.36h0l1.24-.06,0-.26-.13-.18v.5l-.18,0-.12-.29.51.33h2.06v-.36l.35.36h.18m-26,0h0l-.29-.23.27.23m-41.4,0v0h0v0h0l0-.06v0h0v-.09h0v.05h0v.1h0v0h0v0h0v0h0v0h0v0h0v0h0v0h0v0h0l0,0,0,0h-.06l0,0h0l0,0h0v0h-.08v-.09l0-.08V213h0v0h0v-.26h0v.06h0v0l0,0v-.08l0,.1V213h.08m10.52,0h0v-.08h0V213h-.06v0h0v-.07h0V213h.19M302,213l-.12-.31-.14-.18-.13.49h0l-.16-.16h.06l.1-.43-.07.59h.3l.05-.19.15.19m-54.58,0,0,0-.11-.39-.27.26-.32.12.28-.21-.3.2.29-.14,0,.16h0v-.14l0,.15.3-.08v0h0m-12.73,0,.27,0-.15-.28v0l-.06.36h-.05m-26.9-.18-.41.17.38-.19-.39.15-.08-.32,0-.21.42.58.12-.18h0m-45.41.15.12,0,0-.19.22,0,0-.13-.21.29-.18,0-.84,0,0-.27,0-.2.08.47.2,0h.55m26.39,0h0m115-.08.27,0-.29.1h.71l-.07-.28,0-.08.41.36h1l-.23-.28,0-.14.38.42h.13l-.17-.3,0-.28-.08.58h-.19l-.88-.28v-.11l-.08.39h-.25l-.88-.21.32.13m-57.31.08H247l0-.34,0,0-.13.37-.13-.11-.25.11h0m-13,0,.07,0h-.63l.56,0m-26.25,0h-.74l.79,0,0,0m-47.6-.15.19.15-.16-.35.31.21h.26l-1,.12,0-.17-.27-.15.12.34-.17-.07,0-.09-.05.17-.25,0-.38,0h-.73l0-.25v-.12L157,213h-1.16l3.63-.15h0m36.21.15h0m109.71,0H306l-.42-.33-.08,0-.05.37h-.17l-.91-.21-.16-.55.08.74-.26-.56,0,0,.52.63.51-.3.05-.29.1.59h.23m-58.13,0,.08,0-.48,0h.4m-16-.05-.31,0,.14-.12-.16.09-.12-.2.44.25,0,0,.09,0,0-.16-.07.1m-75.42,0-.43-.07-.27.09.51-.12h-.57l0,0,0,.14h-.47l.1-.26-.2.05-.12-.1.21.33h-.37l-1-.15,0-.18,0-.06L153,213l0,0-.65,0,0-.12,0-.15,0,.27h-1.38l.06-.22v-.12l0,.34h.26l.24-.06v-.12l0-.25.24.44.08-.19.3.19-.19-.4.22.08,0-.11.1.43h.27l1.41-.33v0l.11-.16.2.46,0,0,.44-.26.06.21.53.09-.49-.35-.32-.14.64.5h.4l.51-.34v-.1L156,213h0m18.58-.08h0v-.06h0v0h0v.11h0v0h0v0h0v-.14h0v-.06h0v0h0v.12h0v0h0v.06h0v.08h0v0h0v0h0v0h0v0h0v0h0v0h0v0h0v-.1h0v0h0m-66.46.1-1-.32v-.14l-.09.46h-.2l-.51-.22h0l-.23-.31-.12.53-.16-.07.14-.27.1-.3-.48.64-.15-.3.06-.4-.38.7,0-.15-.08-.5.39.65h0l1.4-.14,0-.36.11.5H107l1-.27,0-.18.15.45h-.06m1.25,0-1.63-.08.88-.15v-.15l.11.38.21-.09.42.09h0m1.37,0h0v0h0V213h.2l0,0h-.18l0,0m6.51,0h.23v-.12h0l0-.12v-.06h0v.05l0,.15v-.13h0v-.36h0v.29h0V213h0m6.57,0h.16l-2-.22.34-.11h.26l-.18.34.21-.19.34.19.55-.29,0-.07.15.36h.1m2.14,0h0m1.2,0h.24l-.55-.12.31.12m3,0h.26l-3.09,0,2.83,0m1.83,0h-1.13v-.32l.07,0,.17.37.09-.18.09,0,.3.22h.4"/></g></g></svg>