<svg xmlns="http://www.w3.org/2000/svg" viewBox="0 0 419.53 419.53"><defs><style>.cls-1{fill:none;stroke:#000;stroke-linecap:square;stroke-linejoin:bevel;stroke-width:0.75px;}</style></defs><g id="UT"><g id="UT_90"><polyline class="cls-1" points="167.36 209.16 169.22 209.64 167.44 208.85 169.31 209.45 169.9 208.8 170.37 209.44 171.34 209.48 174.82 208.98 173.23 208.6 171.25 208.56 167.67 208.4 164.09 206.91 161.71 207.12 158.93 207.55 157.74 207.13 156.15 206.98 154.56 207.32 152.57 207.11 148.59 207.57 143.03 208.18 114.37 209.03 111.98 208.94 110.78 209.57 104.88 207.71 105.25 207.85 105.84 210.44 106.14 208.74 107.69 209.17 107.83 209.87 107.98 208.51 108.42 208.49 108.79 208.02 108.94 209.06 109.61 210.22 110.05 210 111.08 210.08 111.16 210.51 111.52 209.53 111.89 209.81 113.44 209.02 114.18 207.82 114.33 208 115.44 210.57 115.51 210.46 116.17 210.94 117.72 210.29 118.54 208.72 118.68 208.94 119.42 211.06 119.57 210.52 120.53 208.07 120.6 207.83 120.75 209.34 121.34 208.28 122.16 209.9 122.38 208.78 122.75 209.76 122.89 210.31 123.48 209.34 123.63 209.66 124 209.22 124.08 208.97 124.96 209.19 128.8 210.84 129.61 210.68 129.68 210.78 130.64 211.07 131.84 210.73 157.52 210.55 162.76 210.98 169.57 210.48 171.14 210.48 179 210.59 181.09 210.39 183.18 210.41 197.31 209.08 198.88 208.82 200.97 210.81 203.06 210.85 204.1 210.07 212.47 211.74 252.67 210.55 255.8 210.61 262.58 210.72 264.15 210.08 265.71 209.4 266.75 210.2 272.49 209.72 273.53 209.93 274.05 209.69 275.61 210.69 287.07 211.15 288.63 212.2 303.2 211.69 304.76 210.96 305.29 211.76 305.81 211.13 307.37 211.51 314.65 212.62 311.98 211.54 311.22 210.61 310.97 210.85 310.84 211.16 310.59 210.59 310.33 210.56 308.94 209.77 307.16 209.81 305.26 208.29 304.24 209.12 302.09 209.71 299.93 209.91 297.9 210.24 292.7 210.44 292.57 209.82 291.81 210.03 290.41 208.65 289.9 207.1 289.52 207.82 288.38 210.08 286.23 210.42 285.47 209.56 285.34 210.44 284.32 211.19 284.2 210.85 284.07 210.7 283.82 211.24 283.56 211.3 281.41 211.39 280.01 211.35 279.13 210.74 278.24 208.08 277.99 209.77 277.86 210.11 277.61 209.5 277.1 209.76 275.32 210.78 275.07 210.43 273.8 209.36 273.68 209.47 272.41 209.78 271.78 209.07 271.52 209.83 270.25 210.72 270.13 210.61 268.84 210.67 266.51 210.53 262.44 209.68 259.53 209.82 257.79 209.79 256.04 210.47 248.47 210.2 239.15 210.32 233.33 211.13 227.5 210.87 225.17 211 222.25 210.87 218.17 210.43 215.84 210.66 212.92 210.24 211.17 210.1 207.67 211.28 206.5 210.75 205.33 209.7 203 210.6 200.08 210.38 195.99 211.16 191.32 210.27 188.4 207.25 186.06 208.5 184.89 207.67 183.73 208.28 181.97 207.29 180.22 209.72 177.88 209.99 173.79 209.44 172.04 209.46 170.28 209.34 167.36 209.16 167.36 209.16"/></g></g></svg>